<?xml version="1.0" encoding="UTF-8" standalone="no"?>
<!-- This is a Stata 17.0 generated SVG file (http://www.stata.com) -->

<svg
   version="1.1"
   width="5.500in"
   height="4.000in"
   viewBox="0 0 3960 2880"
   id="svg368"
   sodipodi:docname="scm_v2xlg_legcon.svg"
   inkscape:version="1.2.2 (732a01da63, 2022-12-09)"
   inkscape:export-filename="scm_v2xlg_legcon_poster.png"
   inkscape:export-xdpi="192"
   inkscape:export-ydpi="192"
   xmlns:inkscape="http://www.inkscape.org/namespaces/inkscape"
   xmlns:sodipodi="http://sodipodi.sourceforge.net/DTD/sodipodi-0.dtd"
   xmlns="http://www.w3.org/2000/svg"
   xmlns:svg="http://www.w3.org/2000/svg">
  <defs
     id="defs372" />
  <sodipodi:namedview
     id="namedview370"
     pagecolor="#ffffff"
     bordercolor="#000000"
     borderopacity="0.25"
     inkscape:showpageshadow="2"
     inkscape:pageopacity="0.0"
     inkscape:pagecheckerboard="0"
     inkscape:deskcolor="#d1d1d1"
     inkscape:document-units="in"
     showgrid="false"
     inkscape:zoom="1.7383042"
     inkscape:cx="209.97476"
     inkscape:cy="58.102604"
     inkscape:window-width="1440"
     inkscape:window-height="829"
     inkscape:window-x="-8"
     inkscape:window-y="-8"
     inkscape:window-maximized="1"
     inkscape:current-layer="svg368" />
  <desc
     id="desc2">Stata Graph - scm_v2xlg_legcon</desc>
  <rect
     x="0"
     y="0"
     width="3960"
     height="2880"
     style="fill:#EAF2F3;stroke:none"
     id="rect4" />
  <rect
     x="0.00"
     y="0.00"
     width="3959.88"
     height="2880.00"
     style="fill:#FFFFFF"
     id="rect6" />
  <rect
     x="2.88"
     y="2.88"
     width="3954.12"
     height="2874.24"
     style="fill:none;stroke:#EAF2F3;stroke-width:5.76"
     id="rect8" />
  <rect
     x="330.78"
     y="100.86"
     width="3528.24"
     height="2262.84"
     style="fill:#FFFFFF"
     id="rect10" />
  <rect
     x="333.66"
     y="103.74"
     width="3522.48"
     height="2257.08"
     style="fill:none;stroke:#FFFFFF;stroke-width:5.76"
     id="rect12" />
  <line
     x1="330.78"
     y1="2300.34"
     x2="3859.02"
     y2="2300.34"
     style="stroke:#EAF2F3;stroke-width:8.64"
     id="line14" />
  <line
     x1="330.78"
     y1="1873.14"
     x2="3859.02"
     y2="1873.14"
     style="stroke:#EAF2F3;stroke-width:8.64"
     id="line16" />
  <line
     x1="330.78"
     y1="1445.82"
     x2="3859.02"
     y2="1445.82"
     style="stroke:#EAF2F3;stroke-width:8.64"
     id="line18" />
  <line
     x1="330.78"
     y1="1018.62"
     x2="3859.02"
     y2="1018.62"
     style="stroke:#EAF2F3;stroke-width:8.64"
     id="line20" />
  <line
     x1="330.78"
     y1="591.42"
     x2="3859.02"
     y2="591.42"
     style="stroke:#EAF2F3;stroke-width:8.64"
     id="line22" />
  <line
     x1="330.78"
     y1="164.22"
     x2="3859.02"
     y2="164.22"
     style="stroke:#EAF2F3;stroke-width:8.64"
     id="line24" />
  <line
     x1="2568.93"
     y1="2363.70"
     x2="2568.93"
     y2="2340.68"
     style="stroke:#000000;stroke-width:8.64"
     id="line26" />
  <line
     x1="2568.93"
     y1="2320.51"
     x2="2568.93"
     y2="2297.49"
     style="stroke:#000000;stroke-width:8.64"
     id="line28" />
  <line
     x1="2568.93"
     y1="2277.32"
     x2="2568.93"
     y2="2254.30"
     style="stroke:#000000;stroke-width:8.64"
     id="line30" />
  <line
     x1="2568.93"
     y1="2234.13"
     x2="2568.93"
     y2="2211.11"
     style="stroke:#000000;stroke-width:8.64"
     id="line32" />
  <line
     x1="2568.93"
     y1="2190.94"
     x2="2568.93"
     y2="2167.92"
     style="stroke:#000000;stroke-width:8.64"
     id="line34" />
  <line
     x1="2568.93"
     y1="2147.75"
     x2="2568.93"
     y2="2124.73"
     style="stroke:#000000;stroke-width:8.64"
     id="line36" />
  <line
     x1="2568.93"
     y1="2104.56"
     x2="2568.93"
     y2="2081.54"
     style="stroke:#000000;stroke-width:8.64"
     id="line38" />
  <line
     x1="2568.93"
     y1="2061.37"
     x2="2568.93"
     y2="2038.35"
     style="stroke:#000000;stroke-width:8.64"
     id="line40" />
  <line
     x1="2568.93"
     y1="2018.18"
     x2="2568.93"
     y2="1995.16"
     style="stroke:#000000;stroke-width:8.64"
     id="line42" />
  <line
     x1="2568.93"
     y1="1974.99"
     x2="2568.93"
     y2="1951.97"
     style="stroke:#000000;stroke-width:8.64"
     id="line44" />
  <line
     x1="2568.93"
     y1="1931.80"
     x2="2568.93"
     y2="1908.78"
     style="stroke:#000000;stroke-width:8.64"
     id="line46" />
  <line
     x1="2568.93"
     y1="1888.61"
     x2="2568.93"
     y2="1865.59"
     style="stroke:#000000;stroke-width:8.64"
     id="line48" />
  <line
     x1="2568.93"
     y1="1845.42"
     x2="2568.93"
     y2="1822.40"
     style="stroke:#000000;stroke-width:8.64"
     id="line50" />
  <line
     x1="2568.93"
     y1="1802.23"
     x2="2568.93"
     y2="1779.09"
     style="stroke:#000000;stroke-width:8.64"
     id="line52" />
  <line
     x1="2568.93"
     y1="1759.04"
     x2="2568.93"
     y2="1735.90"
     style="stroke:#000000;stroke-width:8.64"
     id="line54" />
  <line
     x1="2568.93"
     y1="1715.72"
     x2="2568.93"
     y2="1692.71"
     style="stroke:#000000;stroke-width:8.64"
     id="line56" />
  <line
     x1="2568.93"
     y1="1672.53"
     x2="2568.93"
     y2="1649.52"
     style="stroke:#000000;stroke-width:8.64"
     id="line58" />
  <line
     x1="2568.93"
     y1="1629.34"
     x2="2568.93"
     y2="1606.33"
     style="stroke:#000000;stroke-width:8.64"
     id="line60" />
  <line
     x1="2568.93"
     y1="1586.15"
     x2="2568.93"
     y2="1563.14"
     style="stroke:#000000;stroke-width:8.64"
     id="line62" />
  <line
     x1="2568.93"
     y1="1542.96"
     x2="2568.93"
     y2="1519.94"
     style="stroke:#000000;stroke-width:8.64"
     id="line64" />
  <line
     x1="2568.93"
     y1="1499.77"
     x2="2568.93"
     y2="1476.75"
     style="stroke:#000000;stroke-width:8.64"
     id="line66" />
  <line
     x1="2568.93"
     y1="1456.58"
     x2="2568.93"
     y2="1433.56"
     style="stroke:#000000;stroke-width:8.64"
     id="line68" />
  <line
     x1="2568.93"
     y1="1413.39"
     x2="2568.93"
     y2="1390.37"
     style="stroke:#000000;stroke-width:8.64"
     id="line70" />
  <line
     x1="2568.93"
     y1="1370.20"
     x2="2568.93"
     y2="1347.18"
     style="stroke:#000000;stroke-width:8.64"
     id="line72" />
  <line
     x1="2568.93"
     y1="1327.01"
     x2="2568.93"
     y2="1303.99"
     style="stroke:#000000;stroke-width:8.64"
     id="line74" />
  <line
     x1="2568.93"
     y1="1283.82"
     x2="2568.93"
     y2="1260.80"
     style="stroke:#000000;stroke-width:8.64"
     id="line76" />
  <line
     x1="2568.93"
     y1="1240.63"
     x2="2568.93"
     y2="1217.61"
     style="stroke:#000000;stroke-width:8.64"
     id="line78" />
  <line
     x1="2568.93"
     y1="1197.44"
     x2="2568.93"
     y2="1174.42"
     style="stroke:#000000;stroke-width:8.64"
     id="line80" />
  <line
     x1="2568.93"
     y1="1154.25"
     x2="2568.93"
     y2="1131.23"
     style="stroke:#000000;stroke-width:8.64"
     id="line82" />
  <line
     x1="2568.93"
     y1="1111.06"
     x2="2568.93"
     y2="1088.04"
     style="stroke:#000000;stroke-width:8.64"
     id="line84" />
  <line
     x1="2568.93"
     y1="1067.87"
     x2="2568.93"
     y2="1044.85"
     style="stroke:#000000;stroke-width:8.64"
     id="line86" />
  <line
     x1="2568.93"
     y1="1024.68"
     x2="2568.93"
     y2="1001.66"
     style="stroke:#000000;stroke-width:8.64"
     id="line88" />
  <line
     x1="2568.93"
     y1="981.49"
     x2="2568.93"
     y2="958.47"
     style="stroke:#000000;stroke-width:8.64"
     id="line90" />
  <line
     x1="2568.93"
     y1="938.30"
     x2="2568.93"
     y2="915.28"
     style="stroke:#000000;stroke-width:8.64"
     id="line92" />
  <line
     x1="2568.93"
     y1="895.11"
     x2="2568.93"
     y2="872.09"
     style="stroke:#000000;stroke-width:8.64"
     id="line94" />
  <line
     x1="2568.93"
     y1="851.92"
     x2="2568.93"
     y2="828.78"
     style="stroke:#000000;stroke-width:8.64"
     id="line96" />
  <line
     x1="2568.93"
     y1="808.73"
     x2="2568.93"
     y2="785.59"
     style="stroke:#000000;stroke-width:8.64"
     id="line98" />
  <line
     x1="2568.93"
     y1="765.42"
     x2="2568.93"
     y2="742.40"
     style="stroke:#000000;stroke-width:8.64"
     id="line100" />
  <line
     x1="2568.93"
     y1="722.23"
     x2="2568.93"
     y2="699.21"
     style="stroke:#000000;stroke-width:8.64"
     id="line102" />
  <line
     x1="2568.93"
     y1="679.04"
     x2="2568.93"
     y2="656.02"
     style="stroke:#000000;stroke-width:8.64"
     id="line104" />
  <line
     x1="2568.93"
     y1="635.85"
     x2="2568.93"
     y2="612.83"
     style="stroke:#000000;stroke-width:8.64"
     id="line106" />
  <line
     x1="2568.93"
     y1="592.66"
     x2="2568.93"
     y2="569.64"
     style="stroke:#000000;stroke-width:8.64"
     id="line108" />
  <line
     x1="2568.93"
     y1="549.47"
     x2="2568.93"
     y2="526.45"
     style="stroke:#000000;stroke-width:8.64"
     id="line110" />
  <line
     x1="2568.93"
     y1="506.28"
     x2="2568.93"
     y2="483.26"
     style="stroke:#000000;stroke-width:8.64"
     id="line112" />
  <line
     x1="2568.93"
     y1="463.09"
     x2="2568.93"
     y2="440.07"
     style="stroke:#000000;stroke-width:8.64"
     id="line114" />
  <line
     x1="2568.93"
     y1="419.90"
     x2="2568.93"
     y2="396.88"
     style="stroke:#000000;stroke-width:8.64"
     id="line116" />
  <line
     x1="2568.93"
     y1="376.71"
     x2="2568.93"
     y2="353.69"
     style="stroke:#000000;stroke-width:8.64"
     id="line118" />
  <line
     x1="2568.93"
     y1="333.52"
     x2="2568.93"
     y2="310.50"
     style="stroke:#000000;stroke-width:8.64"
     id="line120" />
  <line
     x1="2568.93"
     y1="290.33"
     x2="2568.93"
     y2="267.31"
     style="stroke:#000000;stroke-width:8.64"
     id="line122" />
  <line
     x1="2568.93"
     y1="247.14"
     x2="2568.93"
     y2="224.12"
     style="stroke:#000000;stroke-width:8.64"
     id="line124" />
  <line
     x1="2568.93"
     y1="203.95"
     x2="2568.93"
     y2="180.93"
     style="stroke:#000000;stroke-width:8.64"
     id="line126" />
  <line
     x1="2568.93"
     y1="160.76"
     x2="2568.93"
     y2="137.74"
     style="stroke:#000000;stroke-width:8.64"
     id="line128" />
  <line
     x1="2568.93"
     y1="117.57"
     x2="2568.93"
     y2="100.86"
     style="stroke:#000000;stroke-width:8.64"
     id="line130" />
  <line
     x1="394.02"
     y1="486.48"
     x2="449.83"
     y2="486.48"
     style="stroke:#0080FF;stroke-width:8.64"
     id="line134" />
  <line
     x1="449.83"
     y1="486.48"
     x2="451.56"
     y2="486.48"
     style="stroke:#0080FF;stroke-width:8.64"
     id="line136" />
  <line
     x1="480.40"
     y1="486.48"
     x2="505.64"
     y2="486.48"
     style="stroke:#0080FF;stroke-width:8.64"
     id="line138" />
  <line
     x1="505.64"
     y1="486.48"
     x2="538.07"
     y2="487.34"
     style="stroke:#0080FF;stroke-width:8.64"
     id="line140" />
  <line
     x1="566.78"
     y1="487.71"
     x2="617.14"
     y2="485.86"
     style="stroke:#0080FF;stroke-width:8.64"
     id="line142" />
  <line
     x1="617.14"
     y1="485.86"
     x2="624.32"
     y2="485.86"
     style="stroke:#0080FF;stroke-width:8.64"
     id="line144" />
  <line
     x1="653.15"
     y1="485.86"
     x2="672.83"
     y2="485.86"
     style="stroke:#0080FF;stroke-width:8.64"
     id="line146" />
  <line
     x1="672.83"
     y1="485.86"
     x2="710.70"
     y2="485.86"
     style="stroke:#0080FF;stroke-width:8.64"
     id="line148" />
  <line
     x1="739.53"
     y1="485.61"
     x2="784.45"
     y2="484.50"
     style="stroke:#0080FF;stroke-width:8.64"
     id="line150" />
  <line
     x1="784.45"
     y1="484.50"
     x2="797.07"
     y2="484.50"
     style="stroke:#0080FF;stroke-width:8.64"
     id="line152" />
  <line
     x1="825.91"
     y1="484.50"
     x2="840.14"
     y2="484.50"
     style="stroke:#0080FF;stroke-width:8.64"
     id="line154" />
  <line
     x1="840.14"
     y1="484.50"
     x2="883.45"
     y2="484.50"
     style="stroke:#0080FF;stroke-width:8.64"
     id="line156" />
  <line
     x1="912.29"
     y1="484.50"
     x2="951.64"
     y2="484.50"
     style="stroke:#0080FF;stroke-width:8.64"
     id="line158" />
  <line
     x1="951.64"
     y1="484.50"
     x2="969.95"
     y2="485.49"
     style="stroke:#0080FF;stroke-width:8.64"
     id="line160" />
  <line
     x1="998.66"
     y1="487.10"
     x2="1007.45"
     y2="487.59"
     style="stroke:#0080FF;stroke-width:8.64"
     id="line162" />
  <line
     x1="1007.45"
     y1="487.59"
     x2="1053.61"
     y2="472.00"
     style="stroke:#0080FF;stroke-width:8.64"
     id="line164" />
  <line
     x1="1081.95"
     y1="468.78"
     x2="1118.95"
     y2="468.78"
     style="stroke:#0080FF;stroke-width:8.64"
     id="line166" />
  <line
     x1="1118.95"
     y1="468.78"
     x2="1139.37"
     y2="471.25"
     style="stroke:#0080FF;stroke-width:8.64"
     id="line168" />
  <line
     x1="1167.95"
     y1="474.72"
     x2="1174.76"
     y2="475.46"
     style="stroke:#0080FF;stroke-width:8.64"
     id="line170" />
  <line
     x1="1174.76"
     y1="475.46"
     x2="1225.25"
     y2="480.17"
     style="stroke:#0080FF;stroke-width:8.64"
     id="line172" />
  <line
     x1="1253.96"
     y1="478.93"
     x2="1286.26"
     y2="476.45"
     style="stroke:#0080FF;stroke-width:8.64"
     id="line174" />
  <line
     x1="1286.26"
     y1="476.45"
     x2="1311.01"
     y2="480.54"
     style="stroke:#0080FF;stroke-width:8.64"
     id="line176" />
  <line
     x1="1339.47"
     y1="485.24"
     x2="1342.07"
     y2="485.73"
     style="stroke:#0080FF;stroke-width:8.64"
     id="line178" />
  <line
     x1="1342.07"
     y1="485.73"
     x2="1396.15"
     y2="476.20"
     style="stroke:#0080FF;stroke-width:8.64"
     id="line180" />
  <line
     x1="1424.98"
     y1="475.96"
     x2="1453.57"
     y2="475.96"
     style="stroke:#0080FF;stroke-width:8.64"
     id="line182" />
  <line
     x1="1453.57"
     y1="475.96"
     x2="1482.28"
     y2="471.87"
     style="stroke:#0080FF;stroke-width:8.64"
     id="line184" />
  <line
     x1="1510.74"
     y1="468.16"
     x2="1565.07"
     y2="478.31"
     style="stroke:#0080FF;stroke-width:8.64"
     id="line186" />
  <line
     x1="1565.07"
     y1="478.31"
     x2="1567.42"
     y2="478.31"
     style="stroke:#0080FF;stroke-width:8.64"
     id="line188" />
  <line
     x1="1596.13"
     y1="478.31"
     x2="1620.88"
     y2="478.31"
     style="stroke:#0080FF;stroke-width:8.64"
     id="line190" />
  <line
     x1="1620.88"
     y1="478.31"
     x2="1653.80"
     y2="478.31"
     style="stroke:#0080FF;stroke-width:8.64"
     id="line192" />
  <line
     x1="1682.63"
     y1="478.31"
     x2="1732.38"
     y2="478.31"
     style="stroke:#0080FF;stroke-width:8.64"
     id="line194" />
  <line
     x1="1732.38"
     y1="478.31"
     x2="1740.17"
     y2="478.31"
     style="stroke:#0080FF;stroke-width:8.64"
     id="line196" />
  <line
     x1="1769.01"
     y1="478.31"
     x2="1788.19"
     y2="478.31"
     style="stroke:#0080FF;stroke-width:8.64"
     id="line198" />
  <line
     x1="1788.19"
     y1="478.31"
     x2="1826.55"
     y2="478.31"
     style="stroke:#0080FF;stroke-width:8.64"
     id="line200" />
  <line
     x1="1855.38"
     y1="478.31"
     x2="1899.69"
     y2="478.31"
     style="stroke:#0080FF;stroke-width:8.64"
     id="line202" />
  <line
     x1="1899.69"
     y1="478.31"
     x2="1912.93"
     y2="478.31"
     style="stroke:#0080FF;stroke-width:8.64"
     id="line204" />
  <line
     x1="1941.76"
     y1="478.31"
     x2="1955.50"
     y2="478.31"
     style="stroke:#0080FF;stroke-width:8.64"
     id="line206" />
  <line
     x1="1955.50"
     y1="478.31"
     x2="1999.31"
     y2="478.31"
     style="stroke:#0080FF;stroke-width:8.64"
     id="line208" />
  <line
     x1="2028.14"
     y1="478.06"
     x2="2067.00"
     y2="477.44"
     style="stroke:#0080FF;stroke-width:8.64"
     id="line210" />
  <line
     x1="2067.00"
     y1="477.44"
     x2="2078.38"
     y2="462.59"
     style="stroke:#0080FF;stroke-width:8.64"
     id="line212" />
  <line
     x1="2095.95"
     y1="439.70"
     x2="2122.68"
     y2="404.68"
     style="stroke:#0080FF;stroke-width:8.64"
     id="line214" />
  <line
     x1="2122.68"
     y1="404.68"
     x2="2135.06"
     y2="399.23"
     style="stroke:#0080FF;stroke-width:8.64"
     id="line216" />
  <line
     x1="2161.42"
     y1="387.72"
     x2="2178.50"
     y2="380.30"
     style="stroke:#0080FF;stroke-width:8.64"
     id="line218" />
  <line
     x1="2178.50"
     y1="380.30"
     x2="2216.24"
     y2="390.07"
     style="stroke:#0080FF;stroke-width:8.64"
     id="line220" />
  <line
     x1="2244.45"
     y1="394.77"
     x2="2289.99"
     y2="394.77"
     style="stroke:#0080FF;stroke-width:8.64"
     id="line222" />
  <line
     x1="2289.99"
     y1="394.77"
     x2="2302.00"
     y2="394.53"
     style="stroke:#0080FF;stroke-width:8.64"
     id="line224" />
  <line
     x1="2330.83"
     y1="393.91"
     x2="2345.80"
     y2="393.66"
     style="stroke:#0080FF;stroke-width:8.64"
     id="line226" />
  <line
     x1="2345.80"
     y1="393.66"
     x2="2388.38"
     y2="393.66"
     style="stroke:#0080FF;stroke-width:8.64"
     id="line228" />
  <line
     x1="2415.11"
     y1="385.74"
     x2="2457.30"
     y2="360.87"
     style="stroke:#0080FF;stroke-width:8.64"
     id="line230" />
  <line
     x1="2457.30"
     y1="360.87"
     x2="2465.59"
     y2="363.34"
     style="stroke:#0080FF;stroke-width:8.64"
     id="line232" />
  <line
     x1="2493.19"
     y1="371.51"
     x2="2513.11"
     y2="377.33"
     style="stroke:#0080FF;stroke-width:8.64"
     id="line234" />
  <line
     x1="2513.11"
     y1="377.33"
     x2="2549.99"
     y2="376.21"
     style="stroke:#0080FF;stroke-width:8.64"
     id="line236" />
  <path
     d=""
     stroke-linejoin="round"
     style="fill:none;stroke:#0080FF;stroke-width:8.64"
     id="path294" />
  <line
     x1="330.78"
     y1="2363.70"
     x2="330.78"
     y2="100.86"
     style="stroke:#000000;stroke-width:5.76"
     id="line296" />
  <line
     x1="330.78"
     y1="2300.34"
     x2="290.81"
     y2="2300.34"
     style="stroke:#000000;stroke-width:5.76"
     id="line298" />
  <text
     x="252.70"
     y="2300.34"
     style="font-family:'Latin Modern Roman';font-size:60.02px;fill:#000000;-inkscape-font-specification:'Latin Modern Roman, ';font-weight:normal;font-style:normal;font-stretch:normal;font-variant:normal"
     transform="rotate(-90 252.70,2300.34)"
     text-anchor="middle"
     id="text300">0</text>
  <line
     x1="330.78"
     y1="1873.14"
     x2="290.81"
     y2="1873.14"
     style="stroke:#000000;stroke-width:5.76"
     id="line302" />
  <text
     x="252.70"
     y="1873.14"
     style="font-family:'Latin Modern Roman';font-size:60.02px;fill:#000000;-inkscape-font-specification:'Latin Modern Roman, ';font-weight:normal;font-style:normal;font-stretch:normal;font-variant:normal"
     transform="rotate(-90 252.70,1873.14)"
     text-anchor="middle"
     id="text304">.2</text>
  <line
     x1="330.78"
     y1="1445.82"
     x2="290.81"
     y2="1445.82"
     style="stroke:#000000;stroke-width:5.76"
     id="line306" />
  <text
     x="252.70"
     y="1445.82"
     style="font-family:'Latin Modern Roman';font-size:60.02px;fill:#000000;-inkscape-font-specification:'Latin Modern Roman, ';font-weight:normal;font-style:normal;font-stretch:normal;font-variant:normal"
     transform="rotate(-90 252.70,1445.82)"
     text-anchor="middle"
     id="text308">.4</text>
  <line
     x1="330.78"
     y1="1018.62"
     x2="290.81"
     y2="1018.62"
     style="stroke:#000000;stroke-width:5.76"
     id="line310" />
  <text
     x="252.70"
     y="1018.62"
     style="font-family:'Latin Modern Roman';font-size:60.02px;fill:#000000;-inkscape-font-specification:'Latin Modern Roman, ';font-weight:normal;font-style:normal;font-stretch:normal;font-variant:normal"
     transform="rotate(-90 252.70,1018.62)"
     text-anchor="middle"
     id="text312">.6</text>
  <line
     x1="330.78"
     y1="591.42"
     x2="290.81"
     y2="591.42"
     style="stroke:#000000;stroke-width:5.76"
     id="line314" />
  <text
     x="252.70"
     y="591.42"
     style="font-family:'Latin Modern Roman';font-size:60.02px;fill:#000000;-inkscape-font-specification:'Latin Modern Roman, ';font-weight:normal;font-style:normal;font-stretch:normal;font-variant:normal"
     transform="rotate(-90 252.70,591.42)"
     text-anchor="middle"
     id="text316">.8</text>
  <line
     x1="330.78"
     y1="164.22"
     x2="290.81"
     y2="164.22"
     style="stroke:#000000;stroke-width:5.76"
     id="line318" />
  <text
     x="252.70"
     y="164.22"
     style="font-family:'Latin Modern Roman';font-size:60.02px;fill:#000000;-inkscape-font-specification:'Latin Modern Roman, ';font-weight:normal;font-style:normal;font-stretch:normal;font-variant:normal"
     transform="rotate(-90 252.70,164.22)"
     text-anchor="middle"
     id="text320">1</text>
  <text
     x="176.68"
     y="1232.22"
     style="font-family:'Latin Modern Roman';font-size:79.94px;fill:#000000;-inkscape-font-specification:'Latin Modern Roman, ';font-weight:normal;font-style:normal;font-stretch:normal;font-variant:normal"
     transform="rotate(-90 176.68,1232.22)"
     text-anchor="middle"
     id="text322">Legislative constrains on the executive index</text>
  <line
     x1="330.78"
     y1="2363.70"
     x2="3859.02"
     y2="2363.70"
     style="stroke:#000000;stroke-width:5.76"
     id="line324" />
  <line
     x1="449.83"
     y1="2363.70"
     x2="449.83"
     y2="2403.67"
     style="stroke:#000000;stroke-width:5.76"
     id="line326" />
  <text
     x="449.83"
     y="2479.62"
     style="font-family:'Latin Modern Roman';font-size:79.94px;fill:#000000;-inkscape-font-specification:'Latin Modern Roman, ';font-weight:normal;font-style:normal;font-stretch:normal;font-variant:normal"
     text-anchor="middle"
     id="text328">1960</text>
  <line
     x1="1007.57"
     y1="2363.70"
     x2="1007.57"
     y2="2403.67"
     style="stroke:#000000;stroke-width:5.76"
     id="line330" />
  <text
     x="1007.57"
     y="2479.62"
     style="font-family:'Latin Modern Roman';font-size:79.94px;fill:#000000;-inkscape-font-specification:'Latin Modern Roman, ';font-weight:normal;font-style:normal;font-stretch:normal;font-variant:normal"
     text-anchor="middle"
     id="text332">1970</text>
  <line
     x1="1565.19"
     y1="2363.70"
     x2="1565.19"
     y2="2403.67"
     style="stroke:#000000;stroke-width:5.76"
     id="line334" />
  <text
     x="1565.19"
     y="2479.62"
     style="font-family:'Latin Modern Roman';font-size:79.94px;fill:#000000;-inkscape-font-specification:'Latin Modern Roman, ';font-weight:normal;font-style:normal;font-stretch:normal;font-variant:normal"
     text-anchor="middle"
     id="text336">1980</text>
  <line
     x1="2122.81"
     y1="2363.70"
     x2="2122.81"
     y2="2403.67"
     style="stroke:#000000;stroke-width:5.76"
     id="line338" />
  <text
     x="2122.81"
     y="2479.62"
     style="font-family:'Latin Modern Roman';font-size:79.94px;fill:#000000;-inkscape-font-specification:'Latin Modern Roman, ';font-weight:normal;font-style:normal;font-stretch:normal;font-variant:normal"
     text-anchor="middle"
     id="text340">1990</text>
  <line
     x1="2680.43"
     y1="2363.70"
     x2="2680.43"
     y2="2403.67"
     style="stroke:#000000;stroke-width:5.76"
     id="line342" />
  <text
     x="2680.43"
     y="2479.62"
     style="font-family:'Latin Modern Roman';font-size:79.94px;fill:#000000;-inkscape-font-specification:'Latin Modern Roman, ';font-weight:normal;font-style:normal;font-stretch:normal;font-variant:normal"
     text-anchor="middle"
     id="text344">2000</text>
  <line
     x1="3238.04"
     y1="2363.70"
     x2="3238.04"
     y2="2403.67"
     style="stroke:#000000;stroke-width:5.76"
     id="line346" />
  <text
     x="3238.04"
     y="2479.62"
     style="font-family:'Latin Modern Roman';font-size:79.94px;fill:#000000;-inkscape-font-specification:'Latin Modern Roman, ';font-weight:normal;font-style:normal;font-stretch:normal;font-variant:normal"
     text-anchor="middle"
     id="text348">2010</text>
  <line
     x1="3795.66"
     y1="2363.70"
     x2="3795.66"
     y2="2403.67"
     style="stroke:#000000;stroke-width:5.76"
     id="line350" />
  <text
     x="3795.66"
     y="2479.62"
     style="font-family:'Latin Modern Roman';font-size:79.94px;fill:#000000;-inkscape-font-specification:'Latin Modern Roman, ';font-weight:normal;font-style:normal;font-stretch:normal;font-variant:normal"
     text-anchor="middle"
     id="text352">2020</text>
  <rect
     x="1226.12"
     y="2558.24"
     width="1737.70"
     height="186.37"
     style="fill:#FFFFFF"
     id="rect354" />
  <rect
     x="1228.99"
     y="2561.12"
     width="1731.94"
     height="180.61"
     style="fill:none;stroke:#000000;stroke-width:5.76"
     id="rect356" />
  <line
     x1="1269.30"
     y1="2651.43"
     x2="1413.23"
     y2="2651.43"
     style="stroke:#FF0000;stroke-width:8.64"
     id="line358" />
  <line
     x1="1984.08"
     y1="2651.43"
     x2="2041.63"
     y2="2651.43"
     style="stroke:#0080FF;stroke-width:8.64"
     id="line360" />
  <line
     x1="2070.46"
     y1="2651.43"
     x2="2128.01"
     y2="2651.43"
     style="stroke:#0080FF;stroke-width:8.64"
     id="line362" />
  <text
     x="1473.24"
     y="2679.44"
     style="font-family:'Latin Modern Roman';font-size:79.94px;fill:#000000;-inkscape-font-specification:'Latin Modern Roman, ';font-weight:normal;font-style:normal;font-stretch:normal;font-variant:normal"
     id="text364">Venezuela</text>
  <text
     x="2188.15"
     y="2679.44"
     style="font-family:'Latin Modern Roman';font-size:79.94px;fill:#000000;-inkscape-font-specification:'Latin Modern Roman, ';font-weight:normal;font-style:normal;font-stretch:normal;font-variant:normal"
     id="text366">synthetic Venezuela</text>
  <rect
     style="opacity:0.522124;fill:#fffe00;fill-opacity:1;stroke:none;stroke-width:7.28735;stroke-opacity:1"
     id="rect1120-1"
     width="504.6535"
     height="2190.5083"
     x="2575.1003"
     y="168.51682"
     ry="0" />
  <rect
     style="opacity:0.522124;fill:#fffe00;fill-opacity:1;stroke:none;stroke-width:5.92972;stroke-opacity:1"
     id="rect1120-3-0"
     width="333.80603"
     height="2192.6655"
     x="3397.1953"
     y="167.25314"
     ry="0" />
  <text
     x="2822.687"
     y="128.51096"
     style="font-style:normal;font-variant:normal;font-weight:normal;font-stretch:normal;font-size:79.94px;font-family:'Latin Modern Roman';-inkscape-font-specification:'Latin Modern Roman, ';fill:#000000"
     text-anchor="middle"
     id="text340-8-8">(I)</text>
  <text
     x="3564.9368"
     y="130.99545"
     style="font-style:normal;font-variant:normal;font-weight:normal;font-stretch:normal;font-size:79.94px;font-family:'Latin Modern Roman';-inkscape-font-specification:'Latin Modern Roman, ';fill:#000000"
     text-anchor="middle"
     id="text340-8-9-6">(II)</text>
  <text
     x="2820.6252"
     y="954.49847"
     style="font-style:normal;font-variant:normal;font-weight:normal;font-stretch:normal;font-size:79.94px;font-family:'Latin Modern Roman';-inkscape-font-specification:'Latin Modern Roman, ';fill:#000000"
     text-anchor="middle"
     id="text340-8-2-5"><tspan
       sodipodi:role="line"
       id="tspan9798-4"
       x="2820.6252"
       y="954.49847">-0.620</tspan><tspan
       sodipodi:role="line"
       id="tspan9800-80"
       x="2820.6252"
       y="1054.4235">(-68.7%)</tspan></text>
  <text
     x="3566.2954"
     y="957.35736"
     style="font-style:normal;font-variant:normal;font-weight:normal;font-stretch:normal;font-size:79.94px;font-family:'Latin Modern Roman';-inkscape-font-specification:'Latin Modern Roman, ';fill:#000000"
     text-anchor="middle"
     id="text340-8-2-4-6"><tspan
       sodipodi:role="line"
       id="tspan9798-8-8"
       x="3566.2954"
       y="957.35736">-0.671</tspan><tspan
       sodipodi:role="line"
       id="tspan9800-8-3"
       x="3566.2954"
       y="1057.2823">(-74.7%)</tspan></text>
  <path
     d=" M394.02 553.06 L449.83 553.06 L505.64 486.85 L561.33 456.90 L617.14 456.90 L672.83 493.16 L728.64 493.16 L784.45 493.16 L840.14 493.16 L895.95 484.62 L951.64 454.80 L1007.45 454.80 L1063.26 454.80 L1118.95 454.80 L1174.76 454.80 L1230.57 476.08 L1286.26 476.08 L1342.07 476.08 L1397.76 476.08 L1453.57 476.08 L1509.38 446.26 L1565.07 435.49 L1620.88 493.16 L1676.69 465.44 L1732.38 465.44 L1788.19 512.46 L1843.88 512.46 L1899.69 512.46 L1955.50 512.46 L2011.19 512.46 L2067.00 429.05 L2122.68 360.74 L2178.50 348.00 L2234.31 348.00 L2289.99 394.90 L2345.80 394.90 L2401.62 394.90 L2457.30 394.90 L2513.11 394.90 L2568.80 394.90 L2624.61 1195.96 L2680.43 1665.97 L2736.11 1606.20 L2791.92 1798.39 L2847.61 1849.63 L2903.42 1873.14 L2959.23 2150.84 L3014.92 2219.28 L3070.73 2219.28 L3126.54 2219.28 L3182.23 2219.28 L3238.04 2225.59 L3293.73 2236.36 L3349.54 2236.36 L3405.35 2232.02 L3461.04 2232.02 L3516.85 1905.19 L3572.66 1460.91 L3628.35 1539.87 L3684.16 1625.38 L3739.85 1702.23"
     stroke-linejoin="round"
     style="fill:none;stroke:#FF0000;stroke-width:8.64"
     id="path132" />
  <line
     x1="2578.70"
     y1="375.59"
     x2="2624.61"
     y2="375.59"
     style="stroke:#0080FF;stroke-width:8.64"
     id="line238" />
  <line
     x1="2624.61"
     y1="375.59"
     x2="2636.37"
     y2="375.72"
     style="stroke:#0080FF;stroke-width:8.64"
     id="line240" />
  <line
     x1="2665.08"
     y1="375.84"
     x2="2680.43"
     y2="375.84"
     style="stroke:#0080FF;stroke-width:8.64"
     id="line242" />
  <line
     x1="2680.43"
     y1="375.84"
     x2="2720.40"
     y2="362.10"
     style="stroke:#0080FF;stroke-width:8.64"
     id="line244" />
  <line
     x1="2748.24"
     y1="356.66"
     x2="2791.92"
     y2="356.66"
     style="stroke:#0080FF;stroke-width:8.64"
     id="line246" />
  <line
     x1="2791.92"
     y1="356.66"
     x2="2805.17"
     y2="361.11"
     style="stroke:#0080FF;stroke-width:8.64"
     id="line248" />
  <line
     x1="2832.51"
     y1="370.02"
     x2="2847.61"
     y2="375.10"
     style="stroke:#0080FF;stroke-width:8.64"
     id="line250" />
  <line
     x1="2847.61"
     y1="375.10"
     x2="2889.32"
     y2="375.10"
     style="stroke:#0080FF;stroke-width:8.64"
     id="line252" />
  <line
     x1="2918.15"
     y1="375.10"
     x2="2959.23"
     y2="375.10"
     style="stroke:#0080FF;stroke-width:8.64"
     id="line254" />
  <line
     x1="2959.23"
     y1="375.10"
     x2="2975.69"
     y2="375.10"
     style="stroke:#0080FF;stroke-width:8.64"
     id="line256" />
  <line
     x1="3004.53"
     y1="375.10"
     x2="3014.92"
     y2="375.10"
     style="stroke:#0080FF;stroke-width:8.64"
     id="line258" />
  <line
     x1="3014.92"
     y1="375.10"
     x2="3062.07"
     y2="375.10"
     style="stroke:#0080FF;stroke-width:8.64"
     id="line260" />
  <line
     x1="3090.78"
     y1="373.49"
     x2="3126.54"
     y2="370.64"
     style="stroke:#0080FF;stroke-width:8.64"
     id="line262" />
  <line
     x1="3126.54"
     y1="370.64"
     x2="3147.95"
     y2="374.23"
     style="stroke:#0080FF;stroke-width:8.64"
     id="line264" />
  <line
     x1="3176.29"
     y1="379.18"
     x2="3182.23"
     y2="380.17"
     style="stroke:#0080FF;stroke-width:8.64"
     id="line266" />
  <line
     x1="3182.23"
     y1="380.17"
     x2="3231.24"
     y2="363.96"
     style="stroke:#0080FF;stroke-width:8.64"
     id="line268" />
  <line
     x1="3259.20"
     y1="366.19"
     x2="3293.73"
     y2="373.61"
     style="stroke:#0080FF;stroke-width:8.64"
     id="line270" />
  <line
     x1="3293.73"
     y1="373.61"
     x2="3316.01"
     y2="373.61"
     style="stroke:#0080FF;stroke-width:8.64"
     id="line272" />
  <line
     x1="3344.84"
     y1="373.61"
     x2="3349.54"
     y2="373.61"
     style="stroke:#0080FF;stroke-width:8.64"
     id="line274" />
  <line
     x1="3349.54"
     y1="373.61"
     x2="3402.14"
     y2="369.65"
     style="stroke:#0080FF;stroke-width:8.64"
     id="line276" />
  <line
     x1="3430.97"
     y1="369.03"
     x2="3461.04"
     y2="368.42"
     style="stroke:#0080FF;stroke-width:8.64"
     id="line278" />
  <line
     x1="3461.04"
     y1="368.42"
     x2="3483.56"
     y2="384.38"
     style="stroke:#0080FF;stroke-width:8.64"
     id="line280" />
  <line
     x1="3507.08"
     y1="400.96"
     x2="3516.85"
     y2="407.89"
     style="stroke:#0080FF;stroke-width:8.64"
     id="line282" />
  <line
     x1="3516.85"
     y1="407.89"
     x2="3562.27"
     y2="403.81"
     style="stroke:#0080FF;stroke-width:8.64"
     id="line284" />
  <line
     x1="3588.50"
     y1="393.66"
     x2="3628.35"
     y2="370.77"
     style="stroke:#0080FF;stroke-width:8.64"
     id="line286" />
  <line
     x1="3628.35"
     y1="370.77"
     x2="3639.98"
     y2="369.90"
     style="stroke:#0080FF;stroke-width:8.64"
     id="line288" />
  <line
     x1="3668.69"
     y1="367.92"
     x2="3684.16"
     y2="366.81"
     style="stroke:#0080FF;stroke-width:8.64"
     id="line290" />
  <line
     x1="3684.16"
     y1="366.81"
     x2="3724.38"
     y2="379.31"
     style="stroke:#0080FF;stroke-width:8.64"
     id="line292" />
</svg>
