<?xml version="1.0" encoding="UTF-8" standalone="no"?>
<!-- This is a Stata 17.0 generated SVG file (http://www.stata.com) -->

<svg
   version="1.1"
   width="5.500in"
   height="4.000in"
   viewBox="0 0 3960 2880"
   id="svg10198"
   sodipodi:docname="scm_v2lginvstp.svg"
   inkscape:version="1.2.2 (732a01da63, 2022-12-09)"
   inkscape:export-filename="scm_v2lginvstp_poster.png"
   inkscape:export-xdpi="192"
   inkscape:export-ydpi="192"
   xmlns:inkscape="http://www.inkscape.org/namespaces/inkscape"
   xmlns:sodipodi="http://sodipodi.sourceforge.net/DTD/sodipodi-0.dtd"
   xmlns="http://www.w3.org/2000/svg"
   xmlns:svg="http://www.w3.org/2000/svg">
  <defs
     id="defs10202" />
  <sodipodi:namedview
     id="namedview10200"
     pagecolor="#ffffff"
     bordercolor="#000000"
     borderopacity="0.25"
     inkscape:showpageshadow="2"
     inkscape:pageopacity="0.0"
     inkscape:pagecheckerboard="0"
     inkscape:deskcolor="#d1d1d1"
     inkscape:document-units="in"
     showgrid="false"
     inkscape:zoom="1.7383042"
     inkscape:cx="231.25987"
     inkscape:cy="169.70562"
     inkscape:window-width="1440"
     inkscape:window-height="829"
     inkscape:window-x="-8"
     inkscape:window-y="-8"
     inkscape:window-maximized="1"
     inkscape:current-layer="svg10198" />
  <desc
     id="desc9834">Stata Graph - scm_v2lginvstp</desc>
  <rect
     x="0"
     y="0"
     width="3960"
     height="2880"
     style="fill:#EAF2F3;stroke:none"
     id="rect9836" />
  <rect
     x="0.00"
     y="0.00"
     width="3959.88"
     height="2880.00"
     style="fill:#FFFFFF"
     id="rect9838" />
  <rect
     x="2.88"
     y="2.88"
     width="3954.12"
     height="2874.24"
     style="fill:none;stroke:#EAF2F3;stroke-width:5.76"
     id="rect9840" />
  <rect
     x="330.78"
     y="100.86"
     width="3528.24"
     height="2262.84"
     style="fill:#FFFFFF"
     id="rect9842" />
  <rect
     x="333.66"
     y="103.74"
     width="3522.48"
     height="2257.08"
     style="fill:none;stroke:#FFFFFF;stroke-width:5.76"
     id="rect9844" />
  <line
     x1="330.78"
     y1="2300.34"
     x2="3859.02"
     y2="2300.34"
     style="stroke:#EAF2F3;stroke-width:8.64"
     id="line9846" />
  <line
     x1="330.78"
     y1="1873.14"
     x2="3859.02"
     y2="1873.14"
     style="stroke:#EAF2F3;stroke-width:8.64"
     id="line9848" />
  <line
     x1="330.78"
     y1="1445.82"
     x2="3859.02"
     y2="1445.82"
     style="stroke:#EAF2F3;stroke-width:8.64"
     id="line9850" />
  <line
     x1="330.78"
     y1="1018.62"
     x2="3859.02"
     y2="1018.62"
     style="stroke:#EAF2F3;stroke-width:8.64"
     id="line9852" />
  <line
     x1="330.78"
     y1="591.42"
     x2="3859.02"
     y2="591.42"
     style="stroke:#EAF2F3;stroke-width:8.64"
     id="line9854" />
  <line
     x1="330.78"
     y1="164.22"
     x2="3859.02"
     y2="164.22"
     style="stroke:#EAF2F3;stroke-width:8.64"
     id="line9856" />
  <line
     x1="2568.93"
     y1="2363.70"
     x2="2568.93"
     y2="2340.68"
     style="stroke:#000000;stroke-width:8.64"
     id="line9858" />
  <line
     x1="2568.93"
     y1="2320.51"
     x2="2568.93"
     y2="2297.49"
     style="stroke:#000000;stroke-width:8.64"
     id="line9860" />
  <line
     x1="2568.93"
     y1="2277.32"
     x2="2568.93"
     y2="2254.30"
     style="stroke:#000000;stroke-width:8.64"
     id="line9862" />
  <line
     x1="2568.93"
     y1="2234.13"
     x2="2568.93"
     y2="2211.11"
     style="stroke:#000000;stroke-width:8.64"
     id="line9864" />
  <line
     x1="2568.93"
     y1="2190.94"
     x2="2568.93"
     y2="2167.92"
     style="stroke:#000000;stroke-width:8.64"
     id="line9866" />
  <line
     x1="2568.93"
     y1="2147.75"
     x2="2568.93"
     y2="2124.73"
     style="stroke:#000000;stroke-width:8.64"
     id="line9868" />
  <line
     x1="2568.93"
     y1="2104.56"
     x2="2568.93"
     y2="2081.54"
     style="stroke:#000000;stroke-width:8.64"
     id="line9870" />
  <line
     x1="2568.93"
     y1="2061.37"
     x2="2568.93"
     y2="2038.35"
     style="stroke:#000000;stroke-width:8.64"
     id="line9872" />
  <line
     x1="2568.93"
     y1="2018.18"
     x2="2568.93"
     y2="1995.16"
     style="stroke:#000000;stroke-width:8.64"
     id="line9874" />
  <line
     x1="2568.93"
     y1="1974.99"
     x2="2568.93"
     y2="1951.97"
     style="stroke:#000000;stroke-width:8.64"
     id="line9876" />
  <line
     x1="2568.93"
     y1="1931.80"
     x2="2568.93"
     y2="1908.78"
     style="stroke:#000000;stroke-width:8.64"
     id="line9878" />
  <line
     x1="2568.93"
     y1="1888.61"
     x2="2568.93"
     y2="1865.59"
     style="stroke:#000000;stroke-width:8.64"
     id="line9880" />
  <line
     x1="2568.93"
     y1="1845.42"
     x2="2568.93"
     y2="1822.40"
     style="stroke:#000000;stroke-width:8.64"
     id="line9882" />
  <line
     x1="2568.93"
     y1="1802.23"
     x2="2568.93"
     y2="1779.09"
     style="stroke:#000000;stroke-width:8.64"
     id="line9884" />
  <line
     x1="2568.93"
     y1="1759.04"
     x2="2568.93"
     y2="1735.90"
     style="stroke:#000000;stroke-width:8.64"
     id="line9886" />
  <line
     x1="2568.93"
     y1="1715.72"
     x2="2568.93"
     y2="1692.71"
     style="stroke:#000000;stroke-width:8.64"
     id="line9888" />
  <line
     x1="2568.93"
     y1="1672.53"
     x2="2568.93"
     y2="1649.52"
     style="stroke:#000000;stroke-width:8.64"
     id="line9890" />
  <line
     x1="2568.93"
     y1="1629.34"
     x2="2568.93"
     y2="1606.33"
     style="stroke:#000000;stroke-width:8.64"
     id="line9892" />
  <line
     x1="2568.93"
     y1="1586.15"
     x2="2568.93"
     y2="1563.14"
     style="stroke:#000000;stroke-width:8.64"
     id="line9894" />
  <line
     x1="2568.93"
     y1="1542.96"
     x2="2568.93"
     y2="1519.94"
     style="stroke:#000000;stroke-width:8.64"
     id="line9896" />
  <line
     x1="2568.93"
     y1="1499.77"
     x2="2568.93"
     y2="1476.75"
     style="stroke:#000000;stroke-width:8.64"
     id="line9898" />
  <line
     x1="2568.93"
     y1="1456.58"
     x2="2568.93"
     y2="1433.56"
     style="stroke:#000000;stroke-width:8.64"
     id="line9900" />
  <line
     x1="2568.93"
     y1="1413.39"
     x2="2568.93"
     y2="1390.37"
     style="stroke:#000000;stroke-width:8.64"
     id="line9902" />
  <line
     x1="2568.93"
     y1="1370.20"
     x2="2568.93"
     y2="1347.18"
     style="stroke:#000000;stroke-width:8.64"
     id="line9904" />
  <line
     x1="2568.93"
     y1="1327.01"
     x2="2568.93"
     y2="1303.99"
     style="stroke:#000000;stroke-width:8.64"
     id="line9906" />
  <line
     x1="2568.93"
     y1="1283.82"
     x2="2568.93"
     y2="1260.80"
     style="stroke:#000000;stroke-width:8.64"
     id="line9908" />
  <line
     x1="2568.93"
     y1="1240.63"
     x2="2568.93"
     y2="1217.61"
     style="stroke:#000000;stroke-width:8.64"
     id="line9910" />
  <line
     x1="2568.93"
     y1="1197.44"
     x2="2568.93"
     y2="1174.42"
     style="stroke:#000000;stroke-width:8.64"
     id="line9912" />
  <line
     x1="2568.93"
     y1="1154.25"
     x2="2568.93"
     y2="1131.23"
     style="stroke:#000000;stroke-width:8.64"
     id="line9914" />
  <line
     x1="2568.93"
     y1="1111.06"
     x2="2568.93"
     y2="1088.04"
     style="stroke:#000000;stroke-width:8.64"
     id="line9916" />
  <line
     x1="2568.93"
     y1="1067.87"
     x2="2568.93"
     y2="1044.85"
     style="stroke:#000000;stroke-width:8.64"
     id="line9918" />
  <line
     x1="2568.93"
     y1="1024.68"
     x2="2568.93"
     y2="1001.66"
     style="stroke:#000000;stroke-width:8.64"
     id="line9920" />
  <line
     x1="2568.93"
     y1="981.49"
     x2="2568.93"
     y2="958.47"
     style="stroke:#000000;stroke-width:8.64"
     id="line9922" />
  <line
     x1="2568.93"
     y1="938.30"
     x2="2568.93"
     y2="915.28"
     style="stroke:#000000;stroke-width:8.64"
     id="line9924" />
  <line
     x1="2568.93"
     y1="895.11"
     x2="2568.93"
     y2="872.09"
     style="stroke:#000000;stroke-width:8.64"
     id="line9926" />
  <line
     x1="2568.93"
     y1="851.92"
     x2="2568.93"
     y2="828.78"
     style="stroke:#000000;stroke-width:8.64"
     id="line9928" />
  <line
     x1="2568.93"
     y1="808.73"
     x2="2568.93"
     y2="785.59"
     style="stroke:#000000;stroke-width:8.64"
     id="line9930" />
  <line
     x1="2568.93"
     y1="765.42"
     x2="2568.93"
     y2="742.40"
     style="stroke:#000000;stroke-width:8.64"
     id="line9932" />
  <line
     x1="2568.93"
     y1="722.23"
     x2="2568.93"
     y2="699.21"
     style="stroke:#000000;stroke-width:8.64"
     id="line9934" />
  <line
     x1="2568.93"
     y1="679.04"
     x2="2568.93"
     y2="656.02"
     style="stroke:#000000;stroke-width:8.64"
     id="line9936" />
  <line
     x1="2568.93"
     y1="635.85"
     x2="2568.93"
     y2="612.83"
     style="stroke:#000000;stroke-width:8.64"
     id="line9938" />
  <line
     x1="2568.93"
     y1="592.66"
     x2="2568.93"
     y2="569.64"
     style="stroke:#000000;stroke-width:8.64"
     id="line9940" />
  <line
     x1="2568.93"
     y1="549.47"
     x2="2568.93"
     y2="526.45"
     style="stroke:#000000;stroke-width:8.64"
     id="line9942" />
  <line
     x1="2568.93"
     y1="203.95"
     x2="2568.93"
     y2="180.93"
     style="stroke:#000000;stroke-width:8.64"
     id="line9958" />
  <line
     x1="2568.93"
     y1="160.76"
     x2="2568.93"
     y2="137.74"
     style="stroke:#000000;stroke-width:8.64"
     id="line9960" />
  <line
     x1="2568.93"
     y1="117.57"
     x2="2568.93"
     y2="100.86"
     style="stroke:#000000;stroke-width:8.64"
     id="line9962" />
  <line
     x1="394.02"
     y1="652.80"
     x2="449.83"
     y2="652.80"
     style="stroke:#0080FF;stroke-width:8.64"
     id="line9966" />
  <line
     x1="449.83"
     y1="652.80"
     x2="451.56"
     y2="652.80"
     style="stroke:#0080FF;stroke-width:8.64"
     id="line9968" />
  <line
     x1="480.40"
     y1="652.80"
     x2="505.64"
     y2="652.80"
     style="stroke:#0080FF;stroke-width:8.64"
     id="line9970" />
  <line
     x1="505.64"
     y1="652.80"
     x2="538.07"
     y2="652.80"
     style="stroke:#0080FF;stroke-width:8.64"
     id="line9972" />
  <line
     x1="566.78"
     y1="652.80"
     x2="617.14"
     y2="652.80"
     style="stroke:#0080FF;stroke-width:8.64"
     id="line9974" />
  <line
     x1="617.14"
     y1="652.80"
     x2="624.44"
     y2="652.80"
     style="stroke:#0080FF;stroke-width:8.64"
     id="line9976" />
  <line
     x1="653.28"
     y1="652.80"
     x2="672.83"
     y2="652.80"
     style="stroke:#0080FF;stroke-width:8.64"
     id="line9978" />
  <line
     x1="672.83"
     y1="652.80"
     x2="710.82"
     y2="652.80"
     style="stroke:#0080FF;stroke-width:8.64"
     id="line9980" />
  <line
     x1="737.92"
     y1="646.86"
     x2="784.45"
     y2="617.28"
     style="stroke:#0080FF;stroke-width:8.64"
     id="line9982" />
  <line
     x1="784.45"
     y1="617.28"
     x2="786.93"
     y2="617.28"
     style="stroke:#0080FF;stroke-width:8.64"
     id="line9984" />
  <line
     x1="815.76"
     y1="617.28"
     x2="840.14"
     y2="617.28"
     style="stroke:#0080FF;stroke-width:8.64"
     id="line9986" />
  <line
     x1="840.14"
     y1="617.28"
     x2="873.30"
     y2="617.28"
     style="stroke:#0080FF;stroke-width:8.64"
     id="line9988" />
  <line
     x1="901.40"
     y1="614.44"
     x2="951.64"
     y2="588.08"
     style="stroke:#0080FF;stroke-width:8.64"
     id="line9990" />
  <line
     x1="951.64"
     y1="588.08"
     x2="952.38"
     y2="587.83"
     style="stroke:#0080FF;stroke-width:8.64"
     id="line9992" />
  <line
     x1="980.47"
     y1="581.02"
     x2="1007.45"
     y2="574.47"
     style="stroke:#0080FF;stroke-width:8.64"
     id="line9994" />
  <line
     x1="1007.45"
     y1="574.47"
     x2="1037.15"
     y2="573.35"
     style="stroke:#0080FF;stroke-width:8.64"
     id="line9996" />
  <line
     x1="1065.86"
     y1="571.62"
     x2="1118.95"
     y2="557.14"
     style="stroke:#0080FF;stroke-width:8.64"
     id="line9998" />
  <line
     x1="1118.95"
     y1="557.14"
     x2="1121.42"
     y2="557.14"
     style="stroke:#0080FF;stroke-width:8.64"
     id="line10000" />
  <line
     x1="1150.26"
     y1="557.14"
     x2="1174.76"
     y2="557.14"
     style="stroke:#0080FF;stroke-width:8.64"
     id="line10002" />
  <line
     x1="1174.76"
     y1="557.14"
     x2="1207.80"
     y2="557.14"
     style="stroke:#0080FF;stroke-width:8.64"
     id="line10004" />
  <line
     x1="1236.63"
     y1="557.14"
     x2="1286.26"
     y2="557.14"
     style="stroke:#0080FF;stroke-width:8.64"
     id="line10006" />
  <line
     x1="1286.26"
     y1="557.14"
     x2="1294.30"
     y2="557.14"
     style="stroke:#0080FF;stroke-width:8.64"
     id="line10008" />
  <line
     x1="1323.01"
     y1="557.14"
     x2="1342.07"
     y2="557.14"
     style="stroke:#0080FF;stroke-width:8.64"
     id="line10010" />
  <line
     x1="1342.07"
     y1="557.14"
     x2="1380.68"
     y2="557.14"
     style="stroke:#0080FF;stroke-width:8.64"
     id="line10012" />
  <line
     x1="1409.51"
     y1="557.14"
     x2="1453.57"
     y2="557.14"
     style="stroke:#0080FF;stroke-width:8.64"
     id="line10014" />
  <line
     x1="1453.57"
     y1="557.14"
     x2="1467.06"
     y2="557.14"
     style="stroke:#0080FF;stroke-width:8.64"
     id="line10016" />
  <line
     x1="1495.89"
     y1="557.26"
     x2="1509.38"
     y2="557.39"
     style="stroke:#0080FF;stroke-width:8.64"
     id="line10018" />
  <line
     x1="1509.38"
     y1="557.39"
     x2="1552.69"
     y2="549.84"
     style="stroke:#0080FF;stroke-width:8.64"
     id="line10020" />
  <line
     x1="1581.28"
     y1="546.74"
     x2="1620.88"
     y2="544.15"
     style="stroke:#0080FF;stroke-width:8.64"
     id="line10022" />
  <line
     x1="1620.88"
     y1="544.15"
     x2="1638.82"
     y2="544.15"
     style="stroke:#0080FF;stroke-width:8.64"
     id="line10024" />
  <line
     x1="1667.66"
     y1="544.15"
     x2="1676.69"
     y2="544.15"
     style="stroke:#0080FF;stroke-width:8.64"
     id="line10026" />
  <line
     x1="1676.69"
     y1="544.15"
     x2="1725.20"
     y2="544.15"
     style="stroke:#0080FF;stroke-width:8.64"
     id="line10028" />
  <line
     x1="1754.03"
     y1="544.15"
     x2="1788.19"
     y2="544.15"
     style="stroke:#0080FF;stroke-width:8.64"
     id="line10030" />
  <line
     x1="1788.19"
     y1="544.15"
     x2="1811.58"
     y2="544.15"
     style="stroke:#0080FF;stroke-width:8.64"
     id="line10032" />
  <line
     x1="1840.41"
     y1="544.15"
     x2="1843.88"
     y2="544.15"
     style="stroke:#0080FF;stroke-width:8.64"
     id="line10034" />
  <line
     x1="1843.88"
     y1="544.15"
     x2="1897.95"
     y2="544.15"
     style="stroke:#0080FF;stroke-width:8.64"
     id="line10036" />
  <line
     x1="1926.79"
     y1="544.15"
     x2="1955.50"
     y2="544.15"
     style="stroke:#0080FF;stroke-width:8.64"
     id="line10038" />
  <line
     x1="1955.50"
     y1="544.15"
     x2="1984.33"
     y2="544.15"
     style="stroke:#0080FF;stroke-width:8.64"
     id="line10040" />
  <line
     x1="2013.17"
     y1="543.90"
     x2="2067.00"
     y2="538.08"
     style="stroke:#0080FF;stroke-width:8.64"
     id="line10042" />
  <line
     x1="2067.00"
     y1="538.08"
     x2="2069.10"
     y2="535.36"
     style="stroke:#0080FF;stroke-width:8.64"
     id="line10044" />
  <line
     x1="2086.43"
     y1="512.22"
     x2="2121.07"
     y2="466.30"
     style="stroke:#0080FF;stroke-width:8.64"
     id="line10046" />
  <line
     x1="2148.92"
     y1="464.20"
     x2="2178.50"
     y2="464.20"
     style="stroke:#0080FF;stroke-width:8.64"
     id="line10048" />
  <line
     x1="2178.50"
     y1="464.20"
     x2="2206.46"
     y2="464.20"
     style="stroke:#0080FF;stroke-width:8.64"
     id="line10050" />
  <line
     x1="2235.30"
     y1="464.20"
     x2="2289.99"
     y2="464.20"
     style="stroke:#0080FF;stroke-width:8.64"
     id="line10052" />
  <line
     x1="2289.99"
     y1="464.20"
     x2="2292.84"
     y2="464.20"
     style="stroke:#0080FF;stroke-width:8.64"
     id="line10054" />
  <line
     x1="2321.67"
     y1="464.20"
     x2="2345.80"
     y2="464.20"
     style="stroke:#0080FF;stroke-width:8.64"
     id="line10056" />
  <line
     x1="2345.80"
     y1="464.20"
     x2="2379.22"
     y2="464.20"
     style="stroke:#0080FF;stroke-width:8.64"
     id="line10058" />
  <path
     d=""
     stroke-linejoin="round"
     style="fill:none;stroke:#0080FF;stroke-width:8.64"
     id="path10124" />
  <line
     x1="330.78"
     y1="2363.70"
     x2="330.78"
     y2="100.86"
     style="stroke:#000000;stroke-width:5.76"
     id="line10126" />
  <line
     x1="330.78"
     y1="2300.34"
     x2="290.81"
     y2="2300.34"
     style="stroke:#000000;stroke-width:5.76"
     id="line10128" />
  <text
     x="252.70"
     y="2300.34"
     style="font-family:'Latin Modern Roman';font-size:60.02px;fill:#000000;-inkscape-font-specification:'Latin Modern Roman, ';font-weight:normal;font-style:normal;font-stretch:normal;font-variant:normal"
     transform="rotate(-90 252.70,2300.34)"
     text-anchor="middle"
     id="text10130">-3</text>
  <line
     x1="330.78"
     y1="1873.14"
     x2="290.81"
     y2="1873.14"
     style="stroke:#000000;stroke-width:5.76"
     id="line10132" />
  <text
     x="252.70"
     y="1873.14"
     style="font-family:'Latin Modern Roman';font-size:60.02px;fill:#000000;-inkscape-font-specification:'Latin Modern Roman, ';font-weight:normal;font-style:normal;font-stretch:normal;font-variant:normal"
     transform="rotate(-90 252.70,1873.14)"
     text-anchor="middle"
     id="text10134">-2</text>
  <line
     x1="330.78"
     y1="1445.82"
     x2="290.81"
     y2="1445.82"
     style="stroke:#000000;stroke-width:5.76"
     id="line10136" />
  <text
     x="252.70"
     y="1445.82"
     style="font-family:'Latin Modern Roman';font-size:60.02px;fill:#000000;-inkscape-font-specification:'Latin Modern Roman, ';font-weight:normal;font-style:normal;font-stretch:normal;font-variant:normal"
     transform="rotate(-90 252.70,1445.82)"
     text-anchor="middle"
     id="text10138">-1</text>
  <line
     x1="330.78"
     y1="1018.62"
     x2="290.81"
     y2="1018.62"
     style="stroke:#000000;stroke-width:5.76"
     id="line10140" />
  <text
     x="252.70"
     y="1018.62"
     style="font-family:'Latin Modern Roman';font-size:60.02px;fill:#000000;-inkscape-font-specification:'Latin Modern Roman, ';font-weight:normal;font-style:normal;font-stretch:normal;font-variant:normal"
     transform="rotate(-90 252.70,1018.62)"
     text-anchor="middle"
     id="text10142">0</text>
  <line
     x1="330.78"
     y1="591.42"
     x2="290.81"
     y2="591.42"
     style="stroke:#000000;stroke-width:5.76"
     id="line10144" />
  <text
     x="252.70"
     y="591.42"
     style="font-family:'Latin Modern Roman';font-size:60.02px;fill:#000000;-inkscape-font-specification:'Latin Modern Roman, ';font-weight:normal;font-style:normal;font-stretch:normal;font-variant:normal"
     transform="rotate(-90 252.70,591.42)"
     text-anchor="middle"
     id="text10146">1</text>
  <line
     x1="330.78"
     y1="164.22"
     x2="290.81"
     y2="164.22"
     style="stroke:#000000;stroke-width:5.76"
     id="line10148" />
  <text
     x="252.70"
     y="164.22"
     style="font-family:'Latin Modern Roman';font-size:60.02px;fill:#000000;-inkscape-font-specification:'Latin Modern Roman, ';font-weight:normal;font-style:normal;font-stretch:normal;font-variant:normal"
     transform="rotate(-90 252.70,164.22)"
     text-anchor="middle"
     id="text10150">2</text>
  <text
     x="176.68"
     y="1232.22"
     style="font-family:'Latin Modern Roman';font-size:79.94px;fill:#000000;-inkscape-font-specification:'Latin Modern Roman, ';font-weight:normal;font-style:normal;font-stretch:normal;font-variant:normal"
     transform="rotate(-90 176.68,1232.22)"
     text-anchor="middle"
     id="text10152">Legislature investigates in practice</text>
  <line
     x1="330.78"
     y1="2363.70"
     x2="3859.02"
     y2="2363.70"
     style="stroke:#000000;stroke-width:5.76"
     id="line10154" />
  <line
     x1="449.83"
     y1="2363.70"
     x2="449.83"
     y2="2403.67"
     style="stroke:#000000;stroke-width:5.76"
     id="line10156" />
  <text
     x="449.83"
     y="2479.62"
     style="font-family:'Latin Modern Roman';font-size:79.94px;fill:#000000;-inkscape-font-specification:'Latin Modern Roman, ';font-weight:normal;font-style:normal;font-stretch:normal;font-variant:normal"
     text-anchor="middle"
     id="text10158">1960</text>
  <line
     x1="1007.57"
     y1="2363.70"
     x2="1007.57"
     y2="2403.67"
     style="stroke:#000000;stroke-width:5.76"
     id="line10160" />
  <text
     x="1007.57"
     y="2479.62"
     style="font-family:'Latin Modern Roman';font-size:79.94px;fill:#000000;-inkscape-font-specification:'Latin Modern Roman, ';font-weight:normal;font-style:normal;font-stretch:normal;font-variant:normal"
     text-anchor="middle"
     id="text10162">1970</text>
  <line
     x1="1565.19"
     y1="2363.70"
     x2="1565.19"
     y2="2403.67"
     style="stroke:#000000;stroke-width:5.76"
     id="line10164" />
  <text
     x="1565.19"
     y="2479.62"
     style="font-family:'Latin Modern Roman';font-size:79.94px;fill:#000000;-inkscape-font-specification:'Latin Modern Roman, ';font-weight:normal;font-style:normal;font-stretch:normal;font-variant:normal"
     text-anchor="middle"
     id="text10166">1980</text>
  <line
     x1="2122.81"
     y1="2363.70"
     x2="2122.81"
     y2="2403.67"
     style="stroke:#000000;stroke-width:5.76"
     id="line10168" />
  <text
     x="2122.81"
     y="2479.62"
     style="font-family:'Latin Modern Roman';font-size:79.94px;fill:#000000;-inkscape-font-specification:'Latin Modern Roman, ';font-weight:normal;font-style:normal;font-stretch:normal;font-variant:normal"
     text-anchor="middle"
     id="text10170">1990</text>
  <line
     x1="2680.43"
     y1="2363.70"
     x2="2680.43"
     y2="2403.67"
     style="stroke:#000000;stroke-width:5.76"
     id="line10172" />
  <text
     x="2680.43"
     y="2479.62"
     style="font-family:'Latin Modern Roman';font-size:79.94px;fill:#000000;-inkscape-font-specification:'Latin Modern Roman, ';font-weight:normal;font-style:normal;font-stretch:normal;font-variant:normal"
     text-anchor="middle"
     id="text10174">2000</text>
  <line
     x1="3238.04"
     y1="2363.70"
     x2="3238.04"
     y2="2403.67"
     style="stroke:#000000;stroke-width:5.76"
     id="line10176" />
  <text
     x="3238.04"
     y="2479.62"
     style="font-family:'Latin Modern Roman';font-size:79.94px;fill:#000000;-inkscape-font-specification:'Latin Modern Roman, ';font-weight:normal;font-style:normal;font-stretch:normal;font-variant:normal"
     text-anchor="middle"
     id="text10178">2010</text>
  <line
     x1="3795.66"
     y1="2363.70"
     x2="3795.66"
     y2="2403.67"
     style="stroke:#000000;stroke-width:5.76"
     id="line10180" />
  <text
     x="3795.66"
     y="2479.62"
     style="font-family:'Latin Modern Roman';font-size:79.94px;fill:#000000;-inkscape-font-specification:'Latin Modern Roman, ';font-weight:normal;font-style:normal;font-stretch:normal;font-variant:normal"
     text-anchor="middle"
     id="text10182">2020</text>
  <rect
     x="1226.12"
     y="2558.24"
     width="1737.70"
     height="186.37"
     style="fill:#FFFFFF"
     id="rect10184" />
  <rect
     x="1228.99"
     y="2561.12"
     width="1731.94"
     height="180.61"
     style="fill:none;stroke:#000000;stroke-width:5.76"
     id="rect10186" />
  <line
     x1="1269.30"
     y1="2651.43"
     x2="1413.23"
     y2="2651.43"
     style="stroke:#FF0000;stroke-width:8.64"
     id="line10188" />
  <line
     x1="1984.08"
     y1="2651.43"
     x2="2041.63"
     y2="2651.43"
     style="stroke:#0080FF;stroke-width:8.64"
     id="line10190" />
  <line
     x1="2070.46"
     y1="2651.43"
     x2="2128.01"
     y2="2651.43"
     style="stroke:#0080FF;stroke-width:8.64"
     id="line10192" />
  <text
     x="1473.24"
     y="2679.44"
     style="font-family:'Latin Modern Roman';font-size:79.94px;fill:#000000;-inkscape-font-specification:'Latin Modern Roman, ';font-weight:normal;font-style:normal;font-stretch:normal;font-variant:normal"
     id="text10194">Venezuela</text>
  <text
     x="2188.15"
     y="2679.44"
     style="font-family:'Latin Modern Roman';font-size:79.94px;fill:#000000;-inkscape-font-specification:'Latin Modern Roman, ';font-weight:normal;font-style:normal;font-stretch:normal;font-variant:normal"
     id="text10196">synthetic Venezuela</text>
  <rect
     style="opacity:0.522124;fill:#fffe00;fill-opacity:1;stroke:none;stroke-width:7.28735;stroke-opacity:1"
     id="rect1120"
     width="504.6535"
     height="2190.5083"
     x="2573.1282"
     y="168.51674"
     ry="0" />
  <rect
     style="opacity:0.522124;fill:#fffe00;fill-opacity:1;stroke:none;stroke-width:5.92972;stroke-opacity:1"
     id="rect1120-3"
     width="333.80603"
     height="2192.6655"
     x="3396.4868"
     y="167.25308"
     ry="0" />
  <text
     x="2821.9785"
     y="128.51096"
     style="font-style:normal;font-variant:normal;font-weight:normal;font-stretch:normal;font-size:79.94px;font-family:'Latin Modern Roman';-inkscape-font-specification:'Latin Modern Roman, ';fill:#000000"
     text-anchor="middle"
     id="text340-8">(I)</text>
  <text
     x="3564.2283"
     y="130.99539"
     style="font-style:normal;font-variant:normal;font-weight:normal;font-stretch:normal;font-size:79.94px;font-family:'Latin Modern Roman';-inkscape-font-specification:'Latin Modern Roman, ';fill:#000000"
     text-anchor="middle"
     id="text340-8-9">(II)</text>
  <text
     x="2819.9167"
     y="2183.99"
     style="font-style:normal;font-variant:normal;font-weight:normal;font-stretch:normal;font-size:79.94px;font-family:'Latin Modern Roman';-inkscape-font-specification:'Latin Modern Roman, ';fill:#000000"
     text-anchor="middle"
     id="text340-8-2"><tspan
       sodipodi:role="line"
       id="tspan9798"
       x="2819.9167"
       y="2183.99">-2.387</tspan><tspan
       sodipodi:role="line"
       id="tspan9800"
       x="2819.9167"
       y="2283.915">(-172.2%)</tspan></text>
  <text
     x="3565.5869"
     y="2186.8489"
     style="font-style:normal;font-variant:normal;font-weight:normal;font-stretch:normal;font-size:79.94px;font-family:'Latin Modern Roman';-inkscape-font-specification:'Latin Modern Roman, ';fill:#000000"
     text-anchor="middle"
     id="text340-8-2-4"><tspan
       sodipodi:role="line"
       id="tspan9798-8"
       x="3565.5869"
       y="2186.8489">-1.408</tspan><tspan
       sodipodi:role="line"
       id="tspan9800-8"
       x="3565.5869"
       y="2286.7739">(-103.2%)</tspan></text>
  <path
     d=" M394.02 679.04 L449.83 679.04 L505.64 679.04 L561.33 591.42 L617.14 591.42 L672.83 686.34 L728.64 686.34 L784.45 686.34 L840.14 686.34 L895.95 616.29 L951.64 527.32 L1007.45 527.32 L1063.26 527.32 L1118.95 527.32 L1174.76 527.32 L1230.57 614.56 L1286.26 614.56 L1342.07 614.56 L1397.76 614.56 L1453.57 614.56 L1509.38 524.84 L1565.07 524.84 L1620.88 524.84 L1676.69 492.79 L1732.38 492.79 L1788.19 585.48 L1843.88 585.48 L1899.69 585.48 L1955.50 585.48 L2011.19 585.48 L2067.00 421.88 L2122.68 325.72 L2178.50 325.72 L2234.31 325.72 L2289.99 462.84 L2345.80 462.84 L2401.62 462.84 L2457.30 462.84 L2513.11 462.84 L2568.80 462.84 L2624.61 904.15 L2680.43 1172.44 L2736.11 1172.44 L2791.92 1424.53 L2847.61 1579.22 L2903.42 1579.22 L2959.23 1935.14 L3014.92 2115.82 L3070.73 2115.82 L3126.54 2115.82 L3182.23 2115.82 L3238.04 2086.00 L3293.73 2086.00 L3349.54 2086.00 L3405.35 2086.00 L3461.04 2086.00 L3516.85 1023.82 L3572.66 533.38 L3628.35 461.11 L3684.16 461.11 L3739.85 608.50"
     stroke-linejoin="round"
     style="fill:none;stroke:#FF0000;stroke-width:8.64"
     id="path9964" />
  <line
     x1="2568.93"
     y1="506.28"
     x2="2568.93"
     y2="483.26"
     style="stroke:#000000;stroke-width:8.64"
     id="line9944" />
  <line
     x1="2568.93"
     y1="463.09"
     x2="2568.93"
     y2="440.07"
     style="stroke:#000000;stroke-width:8.64"
     id="line9946" />
  <line
     x1="2568.93"
     y1="419.90"
     x2="2568.93"
     y2="396.88"
     style="stroke:#000000;stroke-width:8.64"
     id="line9948" />
  <line
     x1="2568.93"
     y1="376.71"
     x2="2568.93"
     y2="353.69"
     style="stroke:#000000;stroke-width:8.64"
     id="line9950" />
  <line
     x1="2568.93"
     y1="333.52"
     x2="2568.93"
     y2="310.50"
     style="stroke:#000000;stroke-width:8.64"
     id="line9952" />
  <line
     x1="2568.93"
     y1="290.33"
     x2="2568.93"
     y2="267.31"
     style="stroke:#000000;stroke-width:8.64"
     id="line9954" />
  <line
     x1="2568.93"
     y1="247.14"
     x2="2568.93"
     y2="224.12"
     style="stroke:#000000;stroke-width:8.64"
     id="line9956" />
  <line
     x1="2406.81"
     y1="460.49"
     x2="2453.72"
     y2="427.07"
     style="stroke:#0080FF;stroke-width:8.64"
     id="line10060" />
  <line
     x1="2481.81"
     y1="424.60"
     x2="2513.11"
     y2="424.72"
     style="stroke:#0080FF;stroke-width:8.64"
     id="line10062" />
  <line
     x1="2513.11"
     y1="424.72"
     x2="2539.35"
     y2="424.72"
     style="stroke:#0080FF;stroke-width:8.64"
     id="line10064" />
  <line
     x1="2568.18"
     y1="424.72"
     x2="2568.80"
     y2="424.72"
     style="stroke:#0080FF;stroke-width:8.64"
     id="line10066" />
  <line
     x1="2568.80"
     y1="424.72"
     x2="2624.61"
     y2="424.72"
     style="stroke:#0080FF;stroke-width:8.64"
     id="line10068" />
  <line
     x1="2624.61"
     y1="424.72"
     x2="2625.73"
     y2="424.72"
     style="stroke:#0080FF;stroke-width:8.64"
     id="line10070" />
  <line
     x1="2654.56"
     y1="424.72"
     x2="2680.43"
     y2="424.72"
     style="stroke:#0080FF;stroke-width:8.64"
     id="line10072" />
  <line
     x1="2680.43"
     y1="424.72"
     x2="2712.11"
     y2="424.72"
     style="stroke:#0080FF;stroke-width:8.64"
     id="line10074" />
  <line
     x1="2740.94"
     y1="424.72"
     x2="2791.92"
     y2="424.72"
     style="stroke:#0080FF;stroke-width:8.64"
     id="line10076" />
  <line
     x1="2791.92"
     y1="424.72"
     x2="2798.48"
     y2="424.72"
     style="stroke:#0080FF;stroke-width:8.64"
     id="line10078" />
  <line
     x1="2827.32"
     y1="424.72"
     x2="2847.61"
     y2="424.72"
     style="stroke:#0080FF;stroke-width:8.64"
     id="line10080" />
  <line
     x1="2847.61"
     y1="424.72"
     x2="2884.86"
     y2="424.72"
     style="stroke:#0080FF;stroke-width:8.64"
     id="line10082" />
  <line
     x1="2913.69"
     y1="424.72"
     x2="2959.23"
     y2="424.72"
     style="stroke:#0080FF;stroke-width:8.64"
     id="line10084" />
  <line
     x1="2959.23"
     y1="424.72"
     x2="2971.24"
     y2="424.72"
     style="stroke:#0080FF;stroke-width:8.64"
     id="line10086" />
  <line
     x1="3000.07"
     y1="424.72"
     x2="3014.92"
     y2="424.60"
     style="stroke:#0080FF;stroke-width:8.64"
     id="line10088" />
  <line
     x1="3014.92"
     y1="424.60"
     x2="3049.82"
     y2="399.85"
     style="stroke:#0080FF;stroke-width:8.64"
     id="line10090" />
  <line
     x1="3073.21"
     y1="386.85"
     x2="3120.36"
     y2="420.02"
     style="stroke:#0080FF;stroke-width:8.64"
     id="line10092" />
  <line
     x1="3146.34"
     y1="416.56"
     x2="3182.23"
     y2="402.32"
     style="stroke:#0080FF;stroke-width:8.64"
     id="line10094" />
  <line
     x1="3182.23"
     y1="402.32"
     x2="3200.05"
     y2="408.64"
     style="stroke:#0080FF;stroke-width:8.64"
     id="line10096" />
  <line
     x1="3227.28"
     y1="418.16"
     x2="3238.04"
     y2="422.00"
     style="stroke:#0080FF;stroke-width:8.64"
     id="line10098" />
  <line
     x1="3238.04"
     y1="422.00"
     x2="3284.08"
     y2="421.88"
     style="stroke:#0080FF;stroke-width:8.64"
     id="line10100" />
  <line
     x1="3312.91"
     y1="421.88"
     x2="3349.54"
     y2="421.88"
     style="stroke:#0080FF;stroke-width:8.64"
     id="line10102" />
  <line
     x1="3349.54"
     y1="421.88"
     x2="3370.46"
     y2="421.88"
     style="stroke:#0080FF;stroke-width:8.64"
     id="line10104" />
  <line
     x1="3399.29"
     y1="421.88"
     x2="3405.35"
     y2="421.88"
     style="stroke:#0080FF;stroke-width:8.64"
     id="line10106" />
  <line
     x1="3405.35"
     y1="421.88"
     x2="3456.96"
     y2="421.88"
     style="stroke:#0080FF;stroke-width:8.64"
     id="line10108" />
  <line
     x1="3485.67"
     y1="423.98"
     x2="3516.85"
     y2="426.70"
     style="stroke:#0080FF;stroke-width:8.64"
     id="line10110" />
  <line
     x1="3516.85"
     y1="426.70"
     x2="3543.09"
     y2="426.70"
     style="stroke:#0080FF;stroke-width:8.64"
     id="line10112" />
  <line
     x1="3571.92"
     y1="426.70"
     x2="3572.66"
     y2="426.70"
     style="stroke:#0080FF;stroke-width:8.64"
     id="line10114" />
  <line
     x1="3572.66"
     y1="426.70"
     x2="3626.62"
     y2="408.88"
     style="stroke:#0080FF;stroke-width:8.64"
     id="line10116" />
  <line
     x1="3655.33"
     y1="408.39"
     x2="3684.16"
     y2="408.39"
     style="stroke:#0080FF;stroke-width:8.64"
     id="line10118" />
  <line
     x1="3684.16"
     y1="408.39"
     x2="3706.68"
     y2="426.21"
     style="stroke:#0080FF;stroke-width:8.64"
     id="line10120" />
  <line
     x1="3729.45"
     y1="444.15"
     x2="3739.85"
     y2="452.32"
     style="stroke:#0080FF;stroke-width:8.64"
     id="line10122" />
</svg>
