<?xml version="1.0" encoding="UTF-8" standalone="no"?>
<!-- This is a Stata 17.0 generated SVG file (http://www.stata.com) -->

<svg
   version="1.1"
   width="5.500in"
   height="4.000in"
   viewBox="0 0 3960 2880"
   id="svg11296"
   sodipodi:docname="scm_v2lgqstexp.svg"
   inkscape:version="1.2.2 (732a01da63, 2022-12-09)"
   inkscape:export-filename="scm_v2lgqstexp_poster.png"
   inkscape:export-xdpi="192"
   inkscape:export-ydpi="192"
   xmlns:inkscape="http://www.inkscape.org/namespaces/inkscape"
   xmlns:sodipodi="http://sodipodi.sourceforge.net/DTD/sodipodi-0.dtd"
   xmlns="http://www.w3.org/2000/svg"
   xmlns:svg="http://www.w3.org/2000/svg">
  <defs
     id="defs11300" />
  <sodipodi:namedview
     id="namedview11298"
     pagecolor="#ffffff"
     bordercolor="#000000"
     borderopacity="0.25"
     inkscape:showpageshadow="2"
     inkscape:pageopacity="0.0"
     inkscape:pagecheckerboard="0"
     inkscape:deskcolor="#d1d1d1"
     inkscape:document-units="in"
     showgrid="false"
     inkscape:zoom="1.2291667"
     inkscape:cx="349.8305"
     inkscape:cy="183.8644"
     inkscape:window-width="1440"
     inkscape:window-height="829"
     inkscape:window-x="-8"
     inkscape:window-y="-8"
     inkscape:window-maximized="1"
     inkscape:current-layer="svg11296" />
  <desc
     id="desc10936">Stata Graph - scm_v2lgqstexp</desc>
  <rect
     x="0"
     y="0"
     width="3960"
     height="2880"
     style="fill:#EAF2F3;stroke:none"
     id="rect10938" />
  <rect
     x="0.00"
     y="0.00"
     width="3959.88"
     height="2880.00"
     style="fill:#FFFFFF"
     id="rect10940" />
  <rect
     x="2.88"
     y="2.88"
     width="3954.12"
     height="2874.24"
     style="fill:none;stroke:#EAF2F3;stroke-width:5.76"
     id="rect10942" />
  <rect
     x="330.78"
     y="100.86"
     width="3528.24"
     height="2262.84"
     style="fill:#FFFFFF"
     id="rect10944" />
  <rect
     x="333.66"
     y="103.74"
     width="3522.48"
     height="2257.08"
     style="fill:none;stroke:#FFFFFF;stroke-width:5.76"
     id="rect10946" />
  <line
     x1="330.78"
     y1="2247.25"
     x2="3859.02"
     y2="2247.25"
     style="stroke:#EAF2F3;stroke-width:8.64"
     id="line10948" />
  <line
     x1="330.78"
     y1="1737.13"
     x2="3859.02"
     y2="1737.13"
     style="stroke:#EAF2F3;stroke-width:8.64"
     id="line10950" />
  <line
     x1="330.78"
     y1="1226.90"
     x2="3859.02"
     y2="1226.90"
     style="stroke:#EAF2F3;stroke-width:8.64"
     id="line10952" />
  <line
     x1="330.78"
     y1="716.66"
     x2="3859.02"
     y2="716.66"
     style="stroke:#EAF2F3;stroke-width:8.64"
     id="line10954" />
  <line
     x1="330.78"
     y1="206.55"
     x2="3859.02"
     y2="206.55"
     style="stroke:#EAF2F3;stroke-width:8.64"
     id="line10956" />
  <line
     x1="2568.93"
     y1="2363.70"
     x2="2568.93"
     y2="2340.68"
     style="stroke:#000000;stroke-width:8.64"
     id="line10958" />
  <line
     x1="2568.93"
     y1="2320.51"
     x2="2568.93"
     y2="2297.49"
     style="stroke:#000000;stroke-width:8.64"
     id="line10960" />
  <line
     x1="2568.93"
     y1="2277.32"
     x2="2568.93"
     y2="2254.30"
     style="stroke:#000000;stroke-width:8.64"
     id="line10962" />
  <line
     x1="2568.93"
     y1="2234.13"
     x2="2568.93"
     y2="2211.11"
     style="stroke:#000000;stroke-width:8.64"
     id="line10964" />
  <line
     x1="2568.93"
     y1="2190.94"
     x2="2568.93"
     y2="2167.92"
     style="stroke:#000000;stroke-width:8.64"
     id="line10966" />
  <line
     x1="2568.93"
     y1="2147.75"
     x2="2568.93"
     y2="2124.73"
     style="stroke:#000000;stroke-width:8.64"
     id="line10968" />
  <line
     x1="2568.93"
     y1="2104.56"
     x2="2568.93"
     y2="2081.54"
     style="stroke:#000000;stroke-width:8.64"
     id="line10970" />
  <line
     x1="2568.93"
     y1="2061.37"
     x2="2568.93"
     y2="2038.35"
     style="stroke:#000000;stroke-width:8.64"
     id="line10972" />
  <line
     x1="2568.93"
     y1="2018.18"
     x2="2568.93"
     y2="1995.16"
     style="stroke:#000000;stroke-width:8.64"
     id="line10974" />
  <line
     x1="2568.93"
     y1="1974.99"
     x2="2568.93"
     y2="1951.97"
     style="stroke:#000000;stroke-width:8.64"
     id="line10976" />
  <line
     x1="2568.93"
     y1="1931.80"
     x2="2568.93"
     y2="1908.78"
     style="stroke:#000000;stroke-width:8.64"
     id="line10978" />
  <line
     x1="2568.93"
     y1="1888.61"
     x2="2568.93"
     y2="1865.59"
     style="stroke:#000000;stroke-width:8.64"
     id="line10980" />
  <line
     x1="2568.93"
     y1="1845.42"
     x2="2568.93"
     y2="1822.40"
     style="stroke:#000000;stroke-width:8.64"
     id="line10982" />
  <line
     x1="2568.93"
     y1="1802.23"
     x2="2568.93"
     y2="1779.09"
     style="stroke:#000000;stroke-width:8.64"
     id="line10984" />
  <line
     x1="2568.93"
     y1="1759.04"
     x2="2568.93"
     y2="1735.90"
     style="stroke:#000000;stroke-width:8.64"
     id="line10986" />
  <line
     x1="2568.93"
     y1="1715.72"
     x2="2568.93"
     y2="1692.71"
     style="stroke:#000000;stroke-width:8.64"
     id="line10988" />
  <line
     x1="2568.93"
     y1="1672.53"
     x2="2568.93"
     y2="1649.52"
     style="stroke:#000000;stroke-width:8.64"
     id="line10990" />
  <line
     x1="2568.93"
     y1="1629.34"
     x2="2568.93"
     y2="1606.33"
     style="stroke:#000000;stroke-width:8.64"
     id="line10992" />
  <line
     x1="2568.93"
     y1="1586.15"
     x2="2568.93"
     y2="1563.14"
     style="stroke:#000000;stroke-width:8.64"
     id="line10994" />
  <line
     x1="2568.93"
     y1="1542.96"
     x2="2568.93"
     y2="1519.94"
     style="stroke:#000000;stroke-width:8.64"
     id="line10996" />
  <line
     x1="2568.93"
     y1="1499.77"
     x2="2568.93"
     y2="1476.75"
     style="stroke:#000000;stroke-width:8.64"
     id="line10998" />
  <line
     x1="2568.93"
     y1="1456.58"
     x2="2568.93"
     y2="1433.56"
     style="stroke:#000000;stroke-width:8.64"
     id="line11000" />
  <line
     x1="2568.93"
     y1="1413.39"
     x2="2568.93"
     y2="1390.37"
     style="stroke:#000000;stroke-width:8.64"
     id="line11002" />
  <line
     x1="2568.93"
     y1="1370.20"
     x2="2568.93"
     y2="1347.18"
     style="stroke:#000000;stroke-width:8.64"
     id="line11004" />
  <line
     x1="2568.93"
     y1="1327.01"
     x2="2568.93"
     y2="1303.99"
     style="stroke:#000000;stroke-width:8.64"
     id="line11006" />
  <line
     x1="2568.93"
     y1="1283.82"
     x2="2568.93"
     y2="1260.80"
     style="stroke:#000000;stroke-width:8.64"
     id="line11008" />
  <line
     x1="2568.93"
     y1="1240.63"
     x2="2568.93"
     y2="1217.61"
     style="stroke:#000000;stroke-width:8.64"
     id="line11010" />
  <line
     x1="2568.93"
     y1="1197.44"
     x2="2568.93"
     y2="1174.42"
     style="stroke:#000000;stroke-width:8.64"
     id="line11012" />
  <line
     x1="2568.93"
     y1="1154.25"
     x2="2568.93"
     y2="1131.23"
     style="stroke:#000000;stroke-width:8.64"
     id="line11014" />
  <line
     x1="2568.93"
     y1="1111.06"
     x2="2568.93"
     y2="1088.04"
     style="stroke:#000000;stroke-width:8.64"
     id="line11016" />
  <line
     x1="2568.93"
     y1="1067.87"
     x2="2568.93"
     y2="1044.85"
     style="stroke:#000000;stroke-width:8.64"
     id="line11018" />
  <line
     x1="2568.93"
     y1="1024.68"
     x2="2568.93"
     y2="1001.66"
     style="stroke:#000000;stroke-width:8.64"
     id="line11020" />
  <line
     x1="2568.93"
     y1="981.49"
     x2="2568.93"
     y2="958.47"
     style="stroke:#000000;stroke-width:8.64"
     id="line11022" />
  <line
     x1="2568.93"
     y1="938.30"
     x2="2568.93"
     y2="915.28"
     style="stroke:#000000;stroke-width:8.64"
     id="line11024" />
  <line
     x1="2568.93"
     y1="895.11"
     x2="2568.93"
     y2="872.09"
     style="stroke:#000000;stroke-width:8.64"
     id="line11026" />
  <line
     x1="2568.93"
     y1="851.92"
     x2="2568.93"
     y2="828.78"
     style="stroke:#000000;stroke-width:8.64"
     id="line11028" />
  <line
     x1="2568.93"
     y1="808.73"
     x2="2568.93"
     y2="785.59"
     style="stroke:#000000;stroke-width:8.64"
     id="line11030" />
  <line
     x1="2568.93"
     y1="765.42"
     x2="2568.93"
     y2="742.40"
     style="stroke:#000000;stroke-width:8.64"
     id="line11032" />
  <line
     x1="2568.93"
     y1="722.23"
     x2="2568.93"
     y2="699.21"
     style="stroke:#000000;stroke-width:8.64"
     id="line11034" />
  <line
     x1="2568.93"
     y1="679.04"
     x2="2568.93"
     y2="656.02"
     style="stroke:#000000;stroke-width:8.64"
     id="line11036" />
  <line
     x1="2568.93"
     y1="635.85"
     x2="2568.93"
     y2="612.83"
     style="stroke:#000000;stroke-width:8.64"
     id="line11038" />
  <line
     x1="2568.93"
     y1="592.66"
     x2="2568.93"
     y2="569.64"
     style="stroke:#000000;stroke-width:8.64"
     id="line11040" />
  <line
     x1="2568.93"
     y1="549.47"
     x2="2568.93"
     y2="526.45"
     style="stroke:#000000;stroke-width:8.64"
     id="line11042" />
  <line
     x1="2568.93"
     y1="506.28"
     x2="2568.93"
     y2="483.26"
     style="stroke:#000000;stroke-width:8.64"
     id="line11044" />
  <line
     x1="2568.93"
     y1="463.09"
     x2="2568.93"
     y2="440.07"
     style="stroke:#000000;stroke-width:8.64"
     id="line11046" />
  <line
     x1="2568.93"
     y1="419.90"
     x2="2568.93"
     y2="396.88"
     style="stroke:#000000;stroke-width:8.64"
     id="line11048" />
  <line
     x1="2568.93"
     y1="376.71"
     x2="2568.93"
     y2="353.69"
     style="stroke:#000000;stroke-width:8.64"
     id="line11050" />
  <line
     x1="2568.93"
     y1="333.52"
     x2="2568.93"
     y2="310.50"
     style="stroke:#000000;stroke-width:8.64"
     id="line11052" />
  <line
     x1="2568.93"
     y1="290.33"
     x2="2568.93"
     y2="267.31"
     style="stroke:#000000;stroke-width:8.64"
     id="line11054" />
  <line
     x1="2568.93"
     y1="247.14"
     x2="2568.93"
     y2="224.12"
     style="stroke:#000000;stroke-width:8.64"
     id="line11056" />
  <line
     x1="2568.93"
     y1="203.95"
     x2="2568.93"
     y2="180.93"
     style="stroke:#000000;stroke-width:8.64"
     id="line11058" />
  <line
     x1="394.02"
     y1="438.95"
     x2="449.83"
     y2="439.08"
     style="stroke:#0080FF;stroke-width:8.64"
     id="line11066" />
  <line
     x1="449.83"
     y1="439.08"
     x2="451.56"
     y2="439.08"
     style="stroke:#0080FF;stroke-width:8.64"
     id="line11068" />
  <line
     x1="480.40"
     y1="439.08"
     x2="505.64"
     y2="439.08"
     style="stroke:#0080FF;stroke-width:8.64"
     id="line11070" />
  <line
     x1="505.64"
     y1="439.08"
     x2="533.49"
     y2="422.62"
     style="stroke:#0080FF;stroke-width:8.64"
     id="line11072" />
  <line
     x1="558.24"
     y1="407.89"
     x2="561.33"
     y2="406.04"
     style="stroke:#0080FF;stroke-width:8.64"
     id="line11074" />
  <line
     x1="561.33"
     y1="406.04"
     x2="615.29"
     y2="406.04"
     style="stroke:#0080FF;stroke-width:8.64"
     id="line11076" />
  <line
     x1="644.12"
     y1="406.04"
     x2="672.83"
     y2="406.04"
     style="stroke:#0080FF;stroke-width:8.64"
     id="line11078" />
  <line
     x1="672.83"
     y1="406.04"
     x2="701.66"
     y2="406.04"
     style="stroke:#0080FF;stroke-width:8.64"
     id="line11080" />
  <line
     x1="730.50"
     y1="406.04"
     x2="784.45"
     y2="406.04"
     style="stroke:#0080FF;stroke-width:8.64"
     id="line11082" />
  <line
     x1="784.45"
     y1="406.04"
     x2="788.04"
     y2="406.04"
     style="stroke:#0080FF;stroke-width:8.64"
     id="line11084" />
  <line
     x1="816.87"
     y1="406.04"
     x2="840.14"
     y2="406.04"
     style="stroke:#0080FF;stroke-width:8.64"
     id="line11086" />
  <line
     x1="840.14"
     y1="406.04"
     x2="874.54"
     y2="406.04"
     style="stroke:#0080FF;stroke-width:8.64"
     id="line11088" />
  <line
     x1="903.25"
     y1="406.04"
     x2="951.64"
     y2="406.04"
     style="stroke:#0080FF;stroke-width:8.64"
     id="line11090" />
  <line
     x1="951.64"
     y1="406.04"
     x2="960.92"
     y2="406.04"
     style="stroke:#0080FF;stroke-width:8.64"
     id="line11092" />
  <line
     x1="989.75"
     y1="406.04"
     x2="1007.45"
     y2="406.04"
     style="stroke:#0080FF;stroke-width:8.64"
     id="line11094" />
  <line
     x1="1007.45"
     y1="406.04"
     x2="1047.30"
     y2="406.04"
     style="stroke:#0080FF;stroke-width:8.64"
     id="line11096" />
  <line
     x1="1076.13"
     y1="406.04"
     x2="1118.95"
     y2="406.04"
     style="stroke:#0080FF;stroke-width:8.64"
     id="line11098" />
  <line
     x1="1118.95"
     y1="406.04"
     x2="1133.67"
     y2="406.04"
     style="stroke:#0080FF;stroke-width:8.64"
     id="line11100" />
  <line
     x1="1162.51"
     y1="406.04"
     x2="1174.76"
     y2="406.04"
     style="stroke:#0080FF;stroke-width:8.64"
     id="line11102" />
  <line
     x1="1174.76"
     y1="406.04"
     x2="1220.05"
     y2="406.04"
     style="stroke:#0080FF;stroke-width:8.64"
     id="line11104" />
  <line
     x1="1248.89"
     y1="406.04"
     x2="1286.26"
     y2="406.04"
     style="stroke:#0080FF;stroke-width:8.64"
     id="line11106" />
  <line
     x1="1286.26"
     y1="406.04"
     x2="1306.43"
     y2="406.04"
     style="stroke:#0080FF;stroke-width:8.64"
     id="line11108" />
  <line
     x1="1335.26"
     y1="406.04"
     x2="1342.07"
     y2="406.04"
     style="stroke:#0080FF;stroke-width:8.64"
     id="line11110" />
  <line
     x1="1342.07"
     y1="406.04"
     x2="1392.81"
     y2="406.04"
     style="stroke:#0080FF;stroke-width:8.64"
     id="line11112" />
  <line
     x1="1421.64"
     y1="406.04"
     x2="1453.57"
     y2="406.04"
     style="stroke:#0080FF;stroke-width:8.64"
     id="line11114" />
  <line
     x1="1453.57"
     y1="406.04"
     x2="1479.18"
     y2="406.04"
     style="stroke:#0080FF;stroke-width:8.64"
     id="line11116" />
  <line
     x1="1508.02"
     y1="406.04"
     x2="1509.38"
     y2="406.04"
     style="stroke:#0080FF;stroke-width:8.64"
     id="line11118" />
  <line
     x1="1509.38"
     y1="406.04"
     x2="1565.07"
     y2="406.04"
     style="stroke:#0080FF;stroke-width:8.64"
     id="line11120" />
  <line
     x1="1565.07"
     y1="406.04"
     x2="1565.56"
     y2="406.04"
     style="stroke:#0080FF;stroke-width:8.64"
     id="line11122" />
  <line
     x1="1594.40"
     y1="406.04"
     x2="1620.88"
     y2="406.04"
     style="stroke:#0080FF;stroke-width:8.64"
     id="line11124" />
  <line
     x1="1620.88"
     y1="406.04"
     x2="1651.94"
     y2="406.04"
     style="stroke:#0080FF;stroke-width:8.64"
     id="line11126" />
  <line
     x1="1680.77"
     y1="406.04"
     x2="1732.38"
     y2="406.04"
     style="stroke:#0080FF;stroke-width:8.64"
     id="line11128" />
  <line
     x1="1732.38"
     y1="406.04"
     x2="1738.44"
     y2="406.04"
     style="stroke:#0080FF;stroke-width:8.64"
     id="line11130" />
  <line
     x1="1767.15"
     y1="406.04"
     x2="1788.19"
     y2="406.04"
     style="stroke:#0080FF;stroke-width:8.64"
     id="line11132" />
  <line
     x1="1788.19"
     y1="406.04"
     x2="1824.82"
     y2="406.04"
     style="stroke:#0080FF;stroke-width:8.64"
     id="line11134" />
  <line
     x1="1853.53"
     y1="406.04"
     x2="1899.69"
     y2="406.04"
     style="stroke:#0080FF;stroke-width:8.64"
     id="line11136" />
  <line
     x1="1899.69"
     y1="406.04"
     x2="1911.20"
     y2="406.04"
     style="stroke:#0080FF;stroke-width:8.64"
     id="line11138" />
  <line
     x1="1940.03"
     y1="406.04"
     x2="1955.50"
     y2="406.04"
     style="stroke:#0080FF;stroke-width:8.64"
     id="line11140" />
  <line
     x1="1955.50"
     y1="406.04"
     x2="1997.57"
     y2="406.04"
     style="stroke:#0080FF;stroke-width:8.64"
     id="line11142" />
  <line
     x1="2026.41"
     y1="406.04"
     x2="2067.00"
     y2="406.04"
     style="stroke:#0080FF;stroke-width:8.64"
     id="line11144" />
  <line
     x1="2067.00"
     y1="406.04"
     x2="2083.95"
     y2="406.04"
     style="stroke:#0080FF;stroke-width:8.64"
     id="line11146" />
  <line
     x1="2112.78"
     y1="406.04"
     x2="2122.68"
     y2="406.04"
     style="stroke:#0080FF;stroke-width:8.64"
     id="line11148" />
  <line
     x1="2122.68"
     y1="406.04"
     x2="2170.33"
     y2="406.04"
     style="stroke:#0080FF;stroke-width:8.64"
     id="line11150" />
  <line
     x1="2199.16"
     y1="406.04"
     x2="2234.31"
     y2="406.04"
     style="stroke:#0080FF;stroke-width:8.64"
     id="line11152" />
  <line
     x1="2234.31"
     y1="406.04"
     x2="2256.71"
     y2="406.04"
     style="stroke:#0080FF;stroke-width:8.64"
     id="line11154" />
  <line
     x1="2285.54"
     y1="406.04"
     x2="2289.99"
     y2="406.04"
     style="stroke:#0080FF;stroke-width:8.64"
     id="line11156" />
  <line
     x1="2289.99"
     y1="406.04"
     x2="2343.08"
     y2="406.04"
     style="stroke:#0080FF;stroke-width:8.64"
     id="line11158" />
  <line
     x1="2371.92"
     y1="406.04"
     x2="2401.62"
     y2="406.04"
     style="stroke:#0080FF;stroke-width:8.64"
     id="line11160" />
  <line
     x1="2401.62"
     y1="406.04"
     x2="2429.46"
     y2="406.04"
     style="stroke:#0080FF;stroke-width:8.64"
     id="line11162" />
  <line
     x1="2458.29"
     y1="406.04"
     x2="2513.11"
     y2="406.04"
     style="stroke:#0080FF;stroke-width:8.64"
     id="line11164" />
  <line
     x1="2513.11"
     y1="406.04"
     x2="2515.84"
     y2="406.04"
     style="stroke:#0080FF;stroke-width:8.64"
     id="line11166" />
  <rect
     style="opacity:0.522124;fill:#fffe00;fill-opacity:1;stroke:none;stroke-width:7.28735;stroke-opacity:1"
     id="rect1120"
     width="504.6535"
     height="2190.5083"
     x="2574.2068"
     y="171.5676"
     ry="0" />
  <line
     x1="2568.80"
     y1="406.04"
     x2="2602.22"
     y2="406.04"
     style="stroke:#0080FF;stroke-width:8.64"
     id="line11170" />
  <path
     d=""
     stroke-linejoin="round"
     style="fill:none;stroke:#0080FF;stroke-width:8.64"
     id="path11226" />
  <line
     x1="330.78"
     y1="2363.70"
     x2="330.78"
     y2="100.86"
     style="stroke:#000000;stroke-width:5.76"
     id="line11228" />
  <line
     x1="330.78"
     y1="2247.25"
     x2="290.81"
     y2="2247.25"
     style="stroke:#000000;stroke-width:5.76"
     id="line11230" />
  <text
     x="252.70"
     y="2247.25"
     style="font-family:'Latin Modern Roman';font-size:60.02px;fill:#000000;-inkscape-font-specification:'Latin Modern Roman, ';font-weight:normal;font-style:normal;font-stretch:normal;font-variant:normal"
     transform="rotate(-90 252.70,2247.25)"
     text-anchor="middle"
     id="text11232">-2</text>
  <line
     x1="330.78"
     y1="1737.13"
     x2="290.81"
     y2="1737.13"
     style="stroke:#000000;stroke-width:5.76"
     id="line11234" />
  <text
     x="252.70"
     y="1737.13"
     style="font-family:'Latin Modern Roman';font-size:60.02px;fill:#000000;-inkscape-font-specification:'Latin Modern Roman, ';font-weight:normal;font-style:normal;font-stretch:normal;font-variant:normal"
     transform="rotate(-90 252.70,1737.13)"
     text-anchor="middle"
     id="text11236">-1</text>
  <line
     x1="330.78"
     y1="1226.90"
     x2="290.81"
     y2="1226.90"
     style="stroke:#000000;stroke-width:5.76"
     id="line11238" />
  <text
     x="252.70"
     y="1226.90"
     style="font-family:'Latin Modern Roman';font-size:60.02px;fill:#000000;-inkscape-font-specification:'Latin Modern Roman, ';font-weight:normal;font-style:normal;font-stretch:normal;font-variant:normal"
     transform="rotate(-90 252.70,1226.90)"
     text-anchor="middle"
     id="text11240">0</text>
  <line
     x1="330.78"
     y1="716.66"
     x2="290.81"
     y2="716.66"
     style="stroke:#000000;stroke-width:5.76"
     id="line11242" />
  <text
     x="252.70"
     y="716.66"
     style="font-family:'Latin Modern Roman';font-size:60.02px;fill:#000000;-inkscape-font-specification:'Latin Modern Roman, ';font-weight:normal;font-style:normal;font-stretch:normal;font-variant:normal"
     transform="rotate(-90 252.70,716.66)"
     text-anchor="middle"
     id="text11244">1</text>
  <line
     x1="330.78"
     y1="206.55"
     x2="290.81"
     y2="206.55"
     style="stroke:#000000;stroke-width:5.76"
     id="line11246" />
  <text
     x="252.70"
     y="206.55"
     style="font-family:'Latin Modern Roman';font-size:60.02px;fill:#000000;-inkscape-font-specification:'Latin Modern Roman, ';font-weight:normal;font-style:normal;font-stretch:normal;font-variant:normal"
     transform="rotate(-90 252.70,206.55)"
     text-anchor="middle"
     id="text11248">2</text>
  <text
     x="176.68"
     y="1232.22"
     style="font-family:'Latin Modern Roman';font-size:79.94px;fill:#000000;-inkscape-font-specification:'Latin Modern Roman, ';font-weight:normal;font-style:normal;font-stretch:normal;font-variant:normal"
     transform="rotate(-90 176.68,1232.22)"
     text-anchor="middle"
     id="text11250">Legislature questions officials in practice</text>
  <line
     x1="330.78"
     y1="2363.70"
     x2="3859.02"
     y2="2363.70"
     style="stroke:#000000;stroke-width:5.76"
     id="line11252" />
  <line
     x1="449.83"
     y1="2363.70"
     x2="449.83"
     y2="2403.67"
     style="stroke:#000000;stroke-width:5.76"
     id="line11254" />
  <text
     x="449.83"
     y="2479.62"
     style="font-family:'Latin Modern Roman';font-size:79.94px;fill:#000000;-inkscape-font-specification:'Latin Modern Roman, ';font-weight:normal;font-style:normal;font-stretch:normal;font-variant:normal"
     text-anchor="middle"
     id="text11256">1960</text>
  <line
     x1="1007.57"
     y1="2363.70"
     x2="1007.57"
     y2="2403.67"
     style="stroke:#000000;stroke-width:5.76"
     id="line11258" />
  <text
     x="1007.57"
     y="2479.62"
     style="font-family:'Latin Modern Roman';font-size:79.94px;fill:#000000;-inkscape-font-specification:'Latin Modern Roman, ';font-weight:normal;font-style:normal;font-stretch:normal;font-variant:normal"
     text-anchor="middle"
     id="text11260">1970</text>
  <line
     x1="1565.19"
     y1="2363.70"
     x2="1565.19"
     y2="2403.67"
     style="stroke:#000000;stroke-width:5.76"
     id="line11262" />
  <text
     x="1565.19"
     y="2479.62"
     style="font-family:'Latin Modern Roman';font-size:79.94px;fill:#000000;-inkscape-font-specification:'Latin Modern Roman, ';font-weight:normal;font-style:normal;font-stretch:normal;font-variant:normal"
     text-anchor="middle"
     id="text11264">1980</text>
  <line
     x1="2122.81"
     y1="2363.70"
     x2="2122.81"
     y2="2403.67"
     style="stroke:#000000;stroke-width:5.76"
     id="line11266" />
  <text
     x="2122.81"
     y="2479.62"
     style="font-family:'Latin Modern Roman';font-size:79.94px;fill:#000000;-inkscape-font-specification:'Latin Modern Roman, ';font-weight:normal;font-style:normal;font-stretch:normal;font-variant:normal"
     text-anchor="middle"
     id="text11268">1990</text>
  <line
     x1="2680.43"
     y1="2363.70"
     x2="2680.43"
     y2="2403.67"
     style="stroke:#000000;stroke-width:5.76"
     id="line11270" />
  <text
     x="2680.43"
     y="2479.62"
     style="font-family:'Latin Modern Roman';font-size:79.94px;fill:#000000;-inkscape-font-specification:'Latin Modern Roman, ';font-weight:normal;font-style:normal;font-stretch:normal;font-variant:normal"
     text-anchor="middle"
     id="text11272">2000</text>
  <line
     x1="3238.04"
     y1="2363.70"
     x2="3238.04"
     y2="2403.67"
     style="stroke:#000000;stroke-width:5.76"
     id="line11274" />
  <text
     x="3238.04"
     y="2479.62"
     style="font-family:'Latin Modern Roman';font-size:79.94px;fill:#000000;-inkscape-font-specification:'Latin Modern Roman, ';font-weight:normal;font-style:normal;font-stretch:normal;font-variant:normal"
     text-anchor="middle"
     id="text11276">2010</text>
  <line
     x1="3795.66"
     y1="2363.70"
     x2="3795.66"
     y2="2403.67"
     style="stroke:#000000;stroke-width:5.76"
     id="line11278" />
  <text
     x="3795.66"
     y="2479.62"
     style="font-family:'Latin Modern Roman';font-size:79.94px;fill:#000000;-inkscape-font-specification:'Latin Modern Roman, ';font-weight:normal;font-style:normal;font-stretch:normal;font-variant:normal"
     text-anchor="middle"
     id="text11280">2020</text>
  <rect
     x="1226.12"
     y="2558.24"
     width="1737.70"
     height="186.37"
     style="fill:#FFFFFF"
     id="rect11282" />
  <rect
     x="1228.99"
     y="2561.12"
     width="1731.94"
     height="180.61"
     style="fill:none;stroke:#000000;stroke-width:5.76"
     id="rect11284" />
  <line
     x1="1269.30"
     y1="2651.43"
     x2="1413.23"
     y2="2651.43"
     style="stroke:#FF0000;stroke-width:8.64"
     id="line11286" />
  <line
     x1="1984.08"
     y1="2651.43"
     x2="2041.63"
     y2="2651.43"
     style="stroke:#0080FF;stroke-width:8.64"
     id="line11288" />
  <line
     x1="2070.46"
     y1="2651.43"
     x2="2128.01"
     y2="2651.43"
     style="stroke:#0080FF;stroke-width:8.64"
     id="line11290" />
  <text
     x="1473.24"
     y="2679.44"
     style="font-family:'Latin Modern Roman';font-size:79.94px;fill:#000000;-inkscape-font-specification:'Latin Modern Roman, ';font-weight:normal;font-style:normal;font-stretch:normal;font-variant:normal"
     id="text11292">Venezuela</text>
  <text
     x="2188.15"
     y="2679.44"
     style="font-family:'Latin Modern Roman';font-size:79.94px;fill:#000000;-inkscape-font-specification:'Latin Modern Roman, ';font-weight:normal;font-style:normal;font-stretch:normal;font-variant:normal"
     id="text11294">synthetic Venezuela</text>
  <rect
     style="opacity:0.522124;fill:#fffe00;fill-opacity:1;stroke:none;stroke-width:5.92972;stroke-opacity:1"
     id="rect1120-3"
     width="333.80603"
     height="2192.6655"
     x="3393.251"
     y="170.30392"
     ry="0" />
  <text
     x="2818.7427"
     y="131.56174"
     style="font-style:normal;font-variant:normal;font-weight:normal;font-stretch:normal;font-size:79.94px;font-family:'Latin Modern Roman';-inkscape-font-specification:'Latin Modern Roman, ';fill:#000000"
     text-anchor="middle"
     id="text340-8">(I)</text>
  <text
     x="3560.9924"
     y="134.04623"
     style="font-style:normal;font-variant:normal;font-weight:normal;font-stretch:normal;font-size:79.94px;font-family:'Latin Modern Roman';-inkscape-font-specification:'Latin Modern Roman, ';fill:#000000"
     text-anchor="middle"
     id="text340-8-9">(II)</text>
  <text
     x="2816.6809"
     y="957.54926"
     style="font-style:normal;font-variant:normal;font-weight:normal;font-stretch:normal;font-size:79.94px;font-family:'Latin Modern Roman';-inkscape-font-specification:'Latin Modern Roman, ';fill:#000000"
     text-anchor="middle"
     id="text340-8-2"><tspan
       sodipodi:role="line"
       id="tspan9798"
       x="2816.6809"
       y="957.54926">-2.917</tspan><tspan
       sodipodi:role="line"
       id="tspan9800"
       x="2816.6809"
       y="1057.4742">(-113.9%)</tspan></text>
  <text
     x="3562.3511"
     y="960.40814"
     style="font-style:normal;font-variant:normal;font-weight:normal;font-stretch:normal;font-size:79.94px;font-family:'Latin Modern Roman';-inkscape-font-specification:'Latin Modern Roman, ';fill:#000000"
     text-anchor="middle"
     id="text340-8-2-4"><tspan
       sodipodi:role="line"
       id="tspan9798-8"
       x="3562.3511"
       y="960.40814">-2.393</tspan><tspan
       sodipodi:role="line"
       id="tspan9800-8"
       x="3562.3511"
       y="1060.3331">(-158.6%)</tspan></text>
  <line
     x1="2631.05"
     y1="406.04"
     x2="2680.43"
     y2="406.04"
     style="stroke:#0080FF;stroke-width:8.64"
     id="line11172" />
  <line
     x1="2680.43"
     y1="406.04"
     x2="2688.72"
     y2="406.04"
     style="stroke:#0080FF;stroke-width:8.64"
     id="line11174" />
  <line
     x1="2717.43"
     y1="406.04"
     x2="2736.11"
     y2="406.04"
     style="stroke:#0080FF;stroke-width:8.64"
     id="line11176" />
  <line
     x1="2736.11"
     y1="406.04"
     x2="2775.09"
     y2="406.04"
     style="stroke:#0080FF;stroke-width:8.64"
     id="line11178" />
  <line
     x1="2803.80"
     y1="406.04"
     x2="2847.61"
     y2="406.04"
     style="stroke:#0080FF;stroke-width:8.64"
     id="line11180" />
  <line
     x1="2847.61"
     y1="406.04"
     x2="2861.47"
     y2="406.04"
     style="stroke:#0080FF;stroke-width:8.64"
     id="line11182" />
  <line
     x1="2890.31"
     y1="406.04"
     x2="2903.42"
     y2="406.04"
     style="stroke:#0080FF;stroke-width:8.64"
     id="line11184" />
  <line
     x1="2903.42"
     y1="406.04"
     x2="2947.85"
     y2="406.04"
     style="stroke:#0080FF;stroke-width:8.64"
     id="line11186" />
  <line
     x1="2976.68"
     y1="405.79"
     x2="3014.92"
     y2="405.17"
     style="stroke:#0080FF;stroke-width:8.64"
     id="line11188" />
  <line
     x1="3014.92"
     y1="405.17"
     x2="3034.23"
     y2="405.17"
     style="stroke:#0080FF;stroke-width:8.64"
     id="line11190" />
  <line
     x1="3063.06"
     y1="405.17"
     x2="3070.73"
     y2="405.17"
     style="stroke:#0080FF;stroke-width:8.64"
     id="line11192" />
  <line
     x1="3070.73"
     y1="405.17"
     x2="3120.60"
     y2="405.91"
     style="stroke:#0080FF;stroke-width:8.64"
     id="line11194" />
  <line
     x1="3149.44"
     y1="406.04"
     x2="3182.23"
     y2="406.04"
     style="stroke:#0080FF;stroke-width:8.64"
     id="line11196" />
  <line
     x1="3182.23"
     y1="406.04"
     x2="3206.98"
     y2="406.04"
     style="stroke:#0080FF;stroke-width:8.64"
     id="line11198" />
  <line
     x1="3235.82"
     y1="406.04"
     x2="3238.04"
     y2="406.04"
     style="stroke:#0080FF;stroke-width:8.64"
     id="line11200" />
  <line
     x1="3238.04"
     y1="406.04"
     x2="3293.36"
     y2="406.41"
     style="stroke:#0080FF;stroke-width:8.64"
     id="line11202" />
  <line
     x1="3314.89"
     y1="425.47"
     x2="3349.54"
     y2="456.78"
     style="stroke:#0080FF;stroke-width:8.64"
     id="line11204" />
  <line
     x1="3349.54"
     y1="456.78"
     x2="3360.43"
     y2="456.53"
     style="stroke:#0080FF;stroke-width:8.64"
     id="line11206" />
  <line
     x1="3389.27"
     y1="456.16"
     x2="3405.35"
     y2="455.91"
     style="stroke:#0080FF;stroke-width:8.64"
     id="line11208" />
  <line
     x1="3405.35"
     y1="455.91"
     x2="3446.81"
     y2="455.91"
     style="stroke:#0080FF;stroke-width:8.64"
     id="line11210" />
  <line
     x1="3475.64"
     y1="455.91"
     x2="3516.85"
     y2="455.91"
     style="stroke:#0080FF;stroke-width:8.64"
     id="line11212" />
  <line
     x1="3516.85"
     y1="455.91"
     x2="3533.19"
     y2="455.91"
     style="stroke:#0080FF;stroke-width:8.64"
     id="line11214" />
  <line
     x1="3562.02"
     y1="455.91"
     x2="3572.66"
     y2="455.91"
     style="stroke:#0080FF;stroke-width:8.64"
     id="line11216" />
  <line
     x1="3572.66"
     y1="455.91"
     x2="3619.56"
     y2="456.65"
     style="stroke:#0080FF;stroke-width:8.64"
     id="line11218" />
  <line
     x1="3648.40"
     y1="457.64"
     x2="3684.16"
     y2="459.00"
     style="stroke:#0080FF;stroke-width:8.64"
     id="line11220" />
  <line
     x1="3684.16"
     y1="459.00"
     x2="3705.94"
     y2="458.88"
     style="stroke:#0080FF;stroke-width:8.64"
     id="line11222" />
  <line
     x1="3734.78"
     y1="458.76"
     x2="3739.85"
     y2="458.63"
     style="stroke:#0080FF;stroke-width:8.64"
     id="line11224" />
  <line
     x1="2544.67"
     y1="406.04"
     x2="2568.80"
     y2="406.04"
     style="stroke:#0080FF;stroke-width:8.64"
     id="line11168" />
  <path
     d=" M394.02 663.20 L449.83 663.20 L505.64 164.22 L561.33 164.22 L617.14 164.22 L672.83 164.22 L728.64 164.22 L784.45 164.22 L840.14 164.22 L895.95 164.22 L951.64 164.22 L1007.45 164.22 L1063.26 164.22 L1118.95 164.22 L1174.76 164.22 L1230.57 164.22 L1286.26 164.22 L1342.07 164.22 L1397.76 164.22 L1453.57 164.22 L1509.38 164.22 L1565.07 164.22 L1620.88 670.87 L1676.69 670.87 L1732.38 670.87 L1788.19 670.87 L1843.88 670.87 L1899.69 670.87 L1955.50 670.87 L2011.19 670.87 L2067.00 670.87 L2122.68 670.87 L2178.50 670.87 L2234.31 670.87 L2289.99 670.87 L2345.80 670.87 L2401.62 670.87 L2457.30 670.87 L2513.11 670.87 L2568.80 670.87 L2624.61 1158.09 L2680.43 1652.49 L2736.11 1652.49 L2791.92 1652.49 L2847.61 1652.49 L2903.42 1652.49 L2959.23 1652.49 L3014.92 2102.95 L3070.73 2102.95 L3126.54 2102.95 L3182.23 2102.95 L3238.04 2300.46 L3293.73 2300.46 L3349.54 2300.46 L3405.35 2300.46 L3461.04 2300.46 L3516.85 1608.55 L3572.66 1268.85 L3628.35 1422.30 L3684.16 1422.30 L3739.85 1422.30"
     stroke-linejoin="round"
     style="fill:none;stroke:#FF0000;stroke-width:8.64"
     id="path11064" />
</svg>
